<svg width="67" height="65" viewBox="0 0 67 65" fill="none" xmlns="http://www.w3.org/2000/svg">
<path d="M59.0769 0H7.38461C3.32308 0 0 3.23781 0 7.19512V57.561C0 61.5219 3.32308 64.7561 7.38461 64.7561H33.2308V39.5732H25.8462V30.6692H33.2308V23.2942C33.2308 15.5091 37.7058 10.0408 47.136 10.0408L53.7932 10.048V19.4196H49.3735C45.7034 19.4196 44.3077 22.1034 44.3077 24.5929V30.6728H53.7895L51.6923 39.5732H44.3077V64.7561H59.0769C63.1385 64.7561 66.4615 61.5219 66.4615 57.561V7.19512C66.4615 3.23781 63.1385 0 59.0769 0Z" fill="#D95829"/>
</svg>
