<svg width="277" height="94" viewBox="0 0 277 94" fill="none" xmlns="http://www.w3.org/2000/svg">
<path d="M204.33 60.5661C204.343 65.6739 201.406 67.555 197.57 67.9394C193.224 68.3651 191.319 71.6604 191.333 75.9169C191.333 80.4755 194.042 80.6128 198.79 80.3794C201.728 80.2283 204.048 81.8074 204.062 85.3087C204.075 92.0779 198.267 93.6844 194.15 93.6844C188.114 93.6844 181.837 88.0411 181.837 76.1915C181.837 65.0972 189.656 56.3782 196.416 55.3621C200.749 54.7031 204.33 56.8039 204.33 60.5798V60.5661Z" fill="#F9F6EE"/>
<path d="M220.734 82.2738C223 82.2464 224.355 84.2922 224.355 87.5327C224.355 93.0112 221.257 93.8762 217.582 93.8762C209.507 93.8762 206.288 93.2995 206.261 84.814C206.248 78.0036 206.06 72.4289 206.033 64.9732C206.02 59.3848 206.234 53.2884 210.366 52.9314C215.865 52.4509 215.932 59.8654 215.945 64.575C215.945 64.6574 215.945 64.6986 215.945 64.7672C215.945 69.9437 216.187 73.3489 216.2 79.9671C216.2 81.9992 218.695 82.2875 220.734 82.2601V82.2738Z" fill="#F9F6EE"/>
<path d="M249.048 66.7172C249.021 78.6491 247.626 93.9862 237.862 93.9862C227.185 93.9862 224.476 83.2901 224.462 68.8866C224.462 68.1589 224.462 67.3625 224.462 66.5799C224.462 60.305 224.798 52.7531 230.874 52.8218C234.334 52.8629 234.495 61.1425 234.495 64.5065C234.495 65.1656 234.495 65.962 234.495 66.8133C234.495 72.0858 234.602 80.0084 236.856 80.0359C238.895 80.0634 238.962 75.4636 238.962 72.5115C238.962 70.2185 238.908 67.9117 238.921 65.4128C238.921 59.3026 239.511 53.371 244.045 53.7005C248.243 54.0163 249.075 60.3187 249.048 66.7034V66.7172Z" fill="#F9F6EE"/>
<path d="M251.556 80.6127C251.556 76.315 251.288 72.3332 251.301 68.6122C251.301 64.3831 251.663 60.4836 253.032 57.0647C253.944 54.9914 256.371 54.7167 259.188 55.1287C266.283 56.1722 273.164 59.4675 273.164 67.0057C273.164 68.3513 272.829 69.7518 272.037 71.1249C271.528 72.0036 271.246 72.3194 271.246 72.7313C271.246 73.0883 271.474 73.4728 271.97 74.2966C273.647 76.8917 274.894 79.377 274.894 82.2055C274.894 89.5514 269.02 93.698 260.61 93.6843C252.535 93.6843 251.529 91.6934 251.556 80.6127ZM261.2 84.0179C262.662 84.0729 264.808 83.3726 264.821 81.8485C264.821 80.1459 262.689 78.6493 261.106 78.5531C260.033 78.4845 259.926 79.171 259.912 80.6539C259.912 81.0247 259.912 81.3954 259.912 81.9034C259.912 83.5923 259.912 83.963 261.2 84.0042V84.0179ZM261.857 66.9233C263.037 67.0606 264.285 66.5937 264.285 65.3717C264.285 64.081 262.944 63.2297 261.696 63.065C260.449 62.9002 260.06 63.422 260.06 64.9735C260.06 66.3466 260.623 66.7722 261.857 66.9095V66.9233Z" fill="#F9F6EE"/>
<path d="M8.23542 36.9083C8.23542 28.7386 0 33.0912 0 23.4935C0 15.0354 7.10875 18.0287 13.7212 20.4316C14.9686 20.8847 16.2026 21.3103 17.3829 21.7085C20.83 22.8344 24.0356 25.965 24.0356 30.7982C24.0356 39.9016 17.3829 30.7433 17.3829 39.27C17.3829 44.3229 17.9463 50.8999 17.9463 55.939C17.9463 60.0582 16.6452 65.88 12.9835 64.5207C8.86582 62.9828 8.35614 56.859 8.35614 51.4628C8.35614 47.275 8.23542 40.3959 8.23542 36.9083Z" fill="#F9F6EE"/>
<path d="M35.6241 60.2916C35.6241 64.6991 34.2158 70.1913 30.6078 69.4499C25.417 68.3652 25.2427 58.9734 25.2427 52.7122C25.2427 49.5816 25.3634 46.5197 25.4707 43.3205C25.6987 36.414 25.189 23.26 32.0161 24.6056C37.9982 25.7864 36.6435 36.5101 37.3141 41.9474C37.4885 43.2518 37.8238 43.8697 38.2128 43.9246C38.6688 43.9933 39.1785 43.3479 39.6211 42.4143C41.3111 38.7344 40.0101 26.3494 44.7046 26.7888C49.6136 27.2556 50.4586 33.9699 50.4586 41.0137C50.4586 44.7759 50.2306 48.6068 50.2306 51.5177C50.2306 52.9319 50.2843 54.5796 50.2843 56.3509C50.2843 62.818 49.949 72.3608 44.5302 71.839C40.1308 71.4134 39.6748 65.9486 39.6748 60.6211C39.6748 57.2845 39.5541 54.3599 37.7031 54.0853C35.946 53.8244 35.6107 57.0923 35.6107 60.2916H35.6241Z" fill="#F9F6EE"/>
<path d="M71.9861 60.6622C71.9861 67.7747 68.0294 72.3333 62.168 72.4706C53.6509 72.6628 52.7925 62.7355 52.7925 51.9295C52.7925 49.2246 52.8461 46.4647 52.8461 43.7598C52.8461 32.8851 56.4005 28.6835 64.1397 28.4227C67.01 28.3265 70.4571 29.2328 70.4571 33.8463C70.4571 39.8877 62.5033 36.359 62.5033 40.4095C62.5033 44.7484 69.3975 40.4507 69.3975 46.5746C69.3975 53.7557 62.396 48.7303 62.396 54.0578C62.396 55.9801 63.9116 56.6529 65.387 56.5842C66.5137 56.543 67.5867 56.1311 68.6061 56.0624C70.9131 55.9251 71.9861 58.177 71.9861 60.6622Z" fill="#F9F6EE"/>
<path d="M85.6001 56.1447C85.6001 53.3711 85.6537 50.6661 85.6537 47.8925C85.6537 42.565 85.8684 36.9767 87.0084 31.7041C88.0144 27.0082 90.5092 25.0859 95.0158 24.2758C97.3362 23.8639 99.7237 23.8776 101.561 24.2346C103.452 24.6054 104.834 26.8297 104.834 29.3287C104.834 36.5098 95.2439 31.1961 95.2439 39.2285C95.2439 42.4964 100.555 40.2171 102.353 41.4254C103.479 42.1257 103.935 43.2378 103.935 44.3775C103.935 46.8627 102.017 49.2519 99.5896 49.7324C99.1336 49.8148 98.6775 49.8286 98.1812 49.9247C97.2826 50.0894 96.3839 50.4327 96.0889 51.4488C95.6194 53.0827 95.4719 54.5519 95.4719 56.0348C95.4719 58.1631 95.7535 60.0991 95.7535 62.09C95.7535 65.9346 94.1708 69.0652 91.6895 69.4771C86.6731 70.3147 85.6001 62.6804 85.6001 56.1309V56.1447Z" fill="#F9F6EE"/>
<path d="M105.813 44.982C105.813 34.176 108.63 21.7772 117.375 19.7039C125.503 17.7816 127.596 25.1 127.596 35.7687C127.596 46.4374 126.697 62.2963 116.932 64.5893C108.469 66.5803 105.813 55.7056 105.813 44.982ZM119.306 36.5239C119.306 34.89 119.025 33.0363 117.844 33.3247C115.47 33.8876 114.961 39.833 114.961 42.8125C114.961 44.8721 115.47 46.1079 117.053 45.7372C119.145 45.2429 119.306 38.5972 119.306 36.5239Z" fill="#F9F6EE"/>
<path d="M148.211 56.0763C142.457 57.518 142.068 41.563 139.855 42.1259C139.171 42.3044 139.01 44.1169 139.01 45.8881C139.01 47.6594 139.171 49.8288 139.171 51.8884C139.171 56.5019 137.481 59.7836 133.645 60.7584C130.265 61.6097 130.037 58.3281 130.037 54.0579V36.4277C130.037 31.8142 130.144 28.5051 130.144 24.537C130.144 19.6351 131.445 16.3261 135.402 15.3237C141.84 13.6898 150.531 11.5753 150.531 21.2416C150.531 28.2031 146.923 31.3886 146.923 33.0225C146.923 36.9358 152.396 42.9635 152.396 49.9249C152.396 52.4102 150.934 55.4035 148.224 56.0763H148.211ZM138.956 29.1367C140.431 28.766 141.773 26.2808 141.773 24.5782C141.773 23.0815 140.525 22.6147 139.412 22.903C138.513 23.1365 138.393 24.5782 138.393 26.0062V27.2831C138.393 28.4914 138.446 29.2603 138.956 29.1367Z" fill="#F9F6EE"/>
<path d="M153.536 50.213C153.75 36.4824 156.969 12.3027 167.539 7.41459C170.154 6.2063 173.547 11.3416 175.613 17.7263C177.598 23.9051 179.288 31.8551 179.395 39.9562C179.462 44.5148 177.705 49.7874 174.486 50.4327C169.135 51.5174 172.287 40.7114 169.296 38.6518C168.786 38.336 167.552 38.185 166.305 38.4596C165.232 38.693 164.159 39.2971 163.77 40.1622C161.905 44.707 162.361 52.9729 157.17 54.2224C154.568 54.8402 153.509 53.069 153.562 50.1993L153.536 50.213ZM168.705 26.0608C168.705 23.7815 168.652 20.1017 167.23 20.4175C165.366 20.8294 165.03 24.0424 165.03 26.7336C165.03 28.5049 165.647 29.1502 167.002 28.8481C168.182 28.5872 168.692 27.6261 168.692 26.0608H168.705Z" fill="#F9F6EE"/>
<path d="M180.469 27.1733C180.469 17.5756 184.358 4.28428 194.968 2.93868C198.522 2.48557 205.295 5.28662 205.295 10.6141C205.295 13.7447 202.921 15.4885 201.124 15.667C198.307 15.9416 197.395 14.1292 194.525 14.4999C191.199 14.9255 189.106 19.031 189.106 23.9328C189.106 28.3404 189.898 33.4482 193.559 32.9676C195.196 32.7479 197.342 32.2811 197.342 29.9331C197.342 26.8712 193.103 31.6083 193.103 25.4981C193.103 21.3103 195.129 19.745 197.342 19.4978C202.144 18.9349 205.805 20.816 205.805 26.9398C205.805 37.3889 202.144 45.641 194.069 46.712C183.057 48.1537 180.469 36.8671 180.469 27.2007V27.1733Z" fill="#F9F6EE"/>
<path d="M219.245 17.342V24.1661C219.245 32.5556 219.017 45.5722 214.845 45.6683C208.528 45.8056 208.125 33.7227 208.125 23.205C208.125 19.5801 208.233 16.0925 208.233 13.3876C208.233 6.92045 209.534 1.48312 212.914 1.37327C219.057 1.16731 219.231 9.73523 219.231 17.342H219.245Z" fill="#F9F6EE"/>
<path d="M238.331 21.4063C239.23 21.5299 239.297 20.047 239.297 18.9897C239.297 17.2871 239.189 14.9941 239.189 12.6461C239.189 7.81295 239.806 2.66396 243.642 3.36422C245.56 3.72122 249.115 7.14015 249.115 11.7536C249.115 20.2117 249.168 23.713 249.168 31.3061C249.168 38.8991 248.766 48.6479 245.158 47.9339C236.024 46.1215 237.258 28.6835 234.267 28.354C233.368 28.2579 233.194 30.4411 233.194 33.5716V35.2056C233.194 40.3271 232.966 46.0391 228.057 45.7233C222.075 45.3388 221.847 37.0043 221.847 29.2465V14.4586C221.847 8.27979 223.201 1.62043 227.829 1.92251C231.718 2.16966 235.447 20.9944 238.331 21.3926V21.4063Z" fill="#F9F6EE"/>
<path d="M251.663 27.2967C251.663 17.699 255.553 5.83575 266.163 10.0099C269.717 11.4104 276.49 18.0423 276.49 23.3698C276.49 26.5004 274.116 26.8848 272.319 26.061C269.502 24.7703 268.59 22.4636 265.72 21.3514C262.394 20.0607 260.301 23.1501 260.301 28.0657C260.301 32.4732 261.092 37.938 264.754 39.3248C266.391 39.9427 268.537 40.6155 268.537 38.2675C268.537 35.2056 264.298 37.732 264.298 31.6219C264.298 27.4341 266.323 26.9123 268.537 27.8185C273.338 29.8232 277 33.86 277 39.9839C277 50.4329 273.338 56.4057 265.264 53.3026C254.252 49.0736 251.663 36.9631 251.663 27.2967Z" fill="#F9F6EE"/>
</svg>
