<svg width="76" height="73" viewBox="0 0 76 73" fill="none" xmlns="http://www.w3.org/2000/svg">
<g filter="url(#filter0_d_193_1143)">
<path fill-rule="evenodd" clip-rule="evenodd" d="M38.0765 0C29.051 0 27.9212 0.0388535 24.3754 0.194268C20.8397 0.352921 18.4238 0.90011 16.3103 1.69985C14.0921 2.51203 12.0825 3.78607 10.4218 5.43304C8.73156 7.05121 7.42399 9.0092 6.59032 11.1704C5.76952 13.2297 5.20792 15.5836 5.04509 19.0286C4.88226 22.4833 4.8457 23.5842 4.8457 32.3781C4.8457 41.1719 4.88226 42.2728 5.04509 45.7275C5.20792 49.1725 5.76952 51.5264 6.59032 53.5857C7.42409 55.7469 8.73165 57.7048 10.4218 59.3231C12.0827 60.9699 14.0922 62.2439 16.3103 63.0563C18.4238 63.856 20.8397 64.4032 24.3754 64.5618C27.9212 64.7172 29.051 64.7561 38.0765 64.7561C47.102 64.7561 48.2318 64.7172 51.7775 64.5618C55.3133 64.4032 57.7292 63.856 59.8426 63.0563C62.0608 62.244 64.0703 60.97 65.7311 59.3231C67.4214 57.7049 68.729 55.7469 69.5626 53.5857C70.3834 51.5264 70.945 49.1725 71.1079 45.7275C71.2674 42.2728 71.3073 41.1719 71.3073 32.3781C71.3073 23.5842 71.2674 22.4833 71.1079 19.0286C70.945 15.5836 70.3834 13.2297 69.5626 11.1704C68.729 9.0092 67.4214 7.05121 65.7311 5.43304C64.0704 3.78607 62.0608 2.51203 59.8426 1.69985C57.7292 0.90011 55.3133 0.352921 51.7775 0.194268C48.2318 0.0388535 47.102 0 38.0765 0ZM38.0765 5.83453C46.9491 5.83453 47.9992 5.8669 51.5017 6.02232C54.745 6.16802 56.5029 6.69254 57.676 7.13612C59.2245 7.7254 60.3344 8.42801 61.4975 9.558C62.6606 10.6912 63.3784 11.7727 63.9832 13.2815C64.4351 14.4244 64.9801 16.1372 65.1263 19.2941C65.2858 22.71 65.3191 23.7299 65.3191 32.3781C65.3191 41.023 65.2858 42.0461 65.1263 45.4588C64.9768 48.6189 64.4351 50.3317 63.9832 51.4746C63.4504 52.8811 62.6011 54.1534 61.4975 55.1981C60.3344 56.3313 59.2245 57.0307 57.676 57.62C56.5029 58.0603 54.745 58.5913 51.505 58.7338C48.0025 58.8892 46.9524 58.9216 38.0765 58.9216C29.2039 58.9216 28.1504 58.8892 24.6512 58.7338C21.4079 58.5881 19.65 58.0603 18.477 57.62C17.0334 57.1011 15.7275 56.2735 14.6554 55.1981C13.5517 54.1535 12.7023 52.8812 12.1698 51.4746C11.7145 50.3317 11.1728 48.6189 11.0266 45.462C10.8671 42.0461 10.8339 41.0262 10.8339 32.3781C10.8339 23.7331 10.8671 22.71 11.0266 19.2973C11.1762 16.1372 11.7145 14.4244 12.1698 13.2815C12.7746 11.7727 13.4957 10.6912 14.6554 9.558C15.8185 8.42477 16.9284 7.7254 18.477 7.13612C19.65 6.69254 21.4079 6.16478 24.6479 6.02232C28.1538 5.8669 29.2005 5.83453 38.0765 5.83453ZM38.0765 43.1697C35.139 43.1697 32.3218 42.0327 30.2447 40.0089C28.1676 37.9851 27.0007 35.2402 27.0007 32.3781C27.0007 29.5159 28.1676 26.7711 30.2447 24.7472C32.3218 22.7234 35.139 21.5864 38.0765 21.5864C41.014 21.5864 43.8311 22.7234 45.9083 24.7472C47.9854 26.7711 49.1523 29.5159 49.1523 32.3781C49.1523 35.2402 47.9854 37.9851 45.9083 40.0089C43.8311 42.0327 41.014 43.1697 38.0765 43.1697ZM38.0765 15.7519C35.8356 15.7519 33.6167 16.182 31.5464 17.0175C29.4761 17.8531 27.5949 19.0777 26.0104 20.6216C24.4259 22.1655 23.1689 23.9983 22.3114 26.0155C21.4538 28.0327 21.0125 30.1947 21.0125 32.3781C21.0125 34.5614 21.4538 36.7234 22.3114 38.7406C23.1689 40.7578 24.4259 42.5906 26.0104 44.1345C27.5949 45.6784 29.4761 46.903 31.5464 47.7386C33.6167 48.5741 35.8356 49.0042 38.0765 49.0042C42.6021 49.0042 46.9424 47.2525 50.1425 44.1345C53.3427 41.0165 55.1405 36.7876 55.1405 32.3781C55.1405 27.9685 53.3427 23.7396 50.1425 20.6216C46.9424 17.5036 42.6021 15.7519 38.0765 15.7519ZM59.8028 15.0946C59.8028 15.6049 59.6996 16.1101 59.4992 16.5815C59.2988 17.0529 59.0051 17.4812 58.6348 17.842C58.2645 18.2028 57.8249 18.489 57.3411 18.6843C56.8573 18.8795 56.3387 18.98 55.8151 18.98C55.2914 18.98 54.7729 18.8795 54.289 18.6843C53.8052 18.489 53.3656 18.2028 52.9953 17.842C52.625 17.4812 52.3313 17.0529 52.1309 16.5815C51.9305 16.1101 51.8274 15.6049 51.8274 15.0946C51.8274 14.0642 52.2475 13.0759 52.9953 12.3473C53.7432 11.6186 54.7575 11.2093 55.8151 11.2093C56.8727 11.2093 57.8869 11.6186 58.6348 12.3473C59.3826 13.0759 59.8028 14.0642 59.8028 15.0946Z" fill="#D95829"/>
</g>
<defs>
<filter id="filter0_d_193_1143" x="0.845703" y="0" width="74.4614" height="72.7561" filterUnits="userSpaceOnUse" color-interpolation-filters="sRGB">
<feFlood flood-opacity="0" result="BackgroundImageFix"/>
<feColorMatrix in="SourceAlpha" type="matrix" values="0 0 0 0 0 0 0 0 0 0 0 0 0 0 0 0 0 0 127 0" result="hardAlpha"/>
<feOffset dy="4"/>
<feGaussianBlur stdDeviation="2"/>
<feComposite in2="hardAlpha" operator="out"/>
<feColorMatrix type="matrix" values="0 0 0 0 0 0 0 0 0 0 0 0 0 0 0 0 0 0 0.25 0"/>
<feBlend mode="normal" in2="BackgroundImageFix" result="effect1_dropShadow_193_1143"/>
<feBlend mode="normal" in="SourceGraphic" in2="effect1_dropShadow_193_1143" result="shape"/>
</filter>
</defs>
</svg>
