<svg width="115" height="115" viewBox="0 0 115 115" fill="none" xmlns="http://www.w3.org/2000/svg">
<g clip-path="url(#clip0_193_1107)">
<path d="M56.8141 0.490072C53.0541 0.588086 29.8133 1.56823 13.6484 20.2791C0.286144 35.7458 0.404568 53.3197 0.513124 58.1616C0.62168 62.8173 1.1842 77.9604 12.5431 92.0157C27.4547 110.452 49.4619 112.804 53.6067 113.177C57.9687 113.608 77.1929 115.02 93.9697 102.101C114.181 86.5367 114.437 62.8173 114.487 58.1714C114.546 52.9668 114.408 31.4625 96.506 15.2902C80.5582 0.872327 61.3142 0.470469 56.8141 0.490072Z" fill="#758636" stroke="#758636" stroke-miterlimit="10"/>
<path d="M61.571 64.0327C56.5281 57.995 51.4654 50.987 46.8469 42.9106C45.712 40.9307 44.656 38.9704 43.6691 37.0396C40.7875 29.8845 42.3467 22.0924 47.6758 17.2309C53.1135 12.2714 60.2486 12.4184 61.6894 12.4772C62.9131 12.5262 71.2818 13.0065 76.5122 19.8381C81.861 26.8265 79.3938 34.5108 79.0978 35.3733C77.8839 37.9805 76.5517 40.6465 75.0713 43.3713C70.7982 51.2516 66.15 58.1224 61.5611 64.0229L61.571 64.0327Z" fill="#758636" stroke="white" stroke-miterlimit="10"/>
<path d="M60.5348 23.3372C60.0808 23.347 57.2682 23.4646 55.3142 25.6307C53.6957 27.4243 53.7155 29.4532 53.7254 30.0217C53.7352 30.5608 53.8043 32.3153 55.1859 33.9423C56.9919 36.079 59.6564 36.3534 60.1499 36.3926C60.6729 36.4417 63.0019 36.6083 65.0349 35.1087C67.4823 33.3052 67.5119 30.5608 67.5218 30.0217C67.5218 29.4238 67.5218 26.9245 65.3507 25.0524C63.4164 23.3862 61.0973 23.3372 60.5446 23.3372H60.5348Z" fill="#758636" stroke="white" stroke-miterlimit="10"/>
<path d="M28.3331 84.302C28.0864 84.0472 27.7607 83.6845 27.4153 83.2336C27.4153 83.2336 26.7343 82.3417 26.2606 81.4596C25.254 79.5483 25.0863 76.9215 25.0665 76.4805C24.9876 71.2171 24.9086 65.9538 24.8395 60.7002H20.0138C20.4282 71.0407 19.1848 78.578 18.3558 80.2246C17.6453 81.636 16.7966 82.8808 16.7966 82.8808C16.3426 83.5375 15.938 84.0472 15.6518 84.4C15.6419 84.449 15.6123 84.5764 15.6518 84.7333C16.1847 86.9582 28.4712 86.5563 28.7081 84.9195C28.7377 84.6843 28.5206 84.449 28.3429 84.302H28.3331Z" stroke="white" stroke-miterlimit="10"/>
<path d="M19.7967 60.7002C16.5203 60.661 14.8623 60.6218 13.8162 59.7103C12.8688 58.8772 13.3721 58.4851 12.0695 56.9659C10.5497 55.1918 8.34897 53.9568 8.34897 53.9568L6.3851 51.6633C5.96074 50.3989 5.04295 47.0272 6.45418 43.5085C6.82919 42.5676 7.31276 41.7933 7.77658 41.166C8.74372 40.4799 10.1352 39.3429 11.4083 37.6081C12.8787 35.6086 12.6419 34.9225 13.5991 33.7757C16.2242 30.6001 21.9776 31.0901 25.1159 31.9723C26.4284 32.3447 28.491 33.119 30.6917 34.9029C32.7641 36.0693 33.5142 37.3434 33.83 38.2844C34.2741 39.6566 33.899 40.6759 34.3727 43.1067C34.58 44.1848 34.8662 45.0376 35.0635 45.5766C35.4386 46.2431 36.2379 47.8604 36.0109 49.9383C35.7544 52.3592 34.2642 53.898 33.7708 54.4175C32.5273 55.7113 32.1622 55.2212 31.0371 56.5052C29.7147 58.0048 29.7641 59.181 28.4713 59.9749C27.6916 60.4552 26.8725 60.514 26.3594 60.5042C26.0436 60.5924 25.7278 60.6806 25.412 60.7688C24.8001 60.7688 21.6915 60.7296 19.7967 60.7002Z" stroke="white" stroke-miterlimit="10"/>
<path d="M51.5937 85.694C51.5937 85.694 50.8733 82.4595 55.0675 79.2153C55.4129 78.9506 55.7978 78.7448 56.2123 78.6174C56.9327 78.3919 58.0577 77.9803 57.6432 77.7058C57.6432 77.7058 54.1399 73.5696 58.413 71.5898C59.6762 71.0017 61.1368 71.0115 62.3901 71.5996C64.3046 72.5013 67.7587 74.54 67.9856 78.4703C67.9856 78.4703 68.3705 85.8508 62.0151 82.3125C62.0151 82.3125 60.6236 82.7732 60.4558 85.6646C60.2881 88.556 58.6499 89.2519 57.1695 88.8893C55.6892 88.5266 51.6036 85.694 51.6036 85.694H51.5937Z" fill="#758636" stroke="white" stroke-miterlimit="10"/>
<path d="M46.1856 85.4782C46.1856 85.4782 43.5606 83.714 48.9884 77C48.9884 77 49.3634 76.7942 49.5509 75.6082C49.5509 75.6082 46.7876 75.6866 46.235 74.1968C45.6823 72.707 45.7613 69.1883 51.1792 68.3356C56.5971 67.4829 61.3045 75.1868 56.9031 75.9219C56.9031 75.9219 56.9524 75.8827 55.1366 76.4707C55.1366 76.4707 55.6892 85.5371 52.1167 87.1347L46.1856 85.4684V85.4782Z" fill="#758636" stroke="white" stroke-miterlimit="10"/>
<path d="M90.5158 87.6247C90.2789 87.6933 90.0223 87.7815 89.7361 87.9285C89.0749 88.2617 88.6308 88.7028 88.3545 89.0263C87.5157 87.7913 86.6768 86.5563 85.838 85.3115C85.1472 88.399 84.3676 89.2419 83.7064 89.3203C82.9465 89.4085 82.6504 88.4382 81.6931 88.4284C80.0056 88.399 79.147 91.408 77.9825 91.2512C77.5976 91.2022 77.1141 90.8003 76.6897 89.2419C76.3147 90.1926 75.9397 91.1336 75.5745 92.0843C75.2587 92.6038 74.7258 93.3095 73.9166 93.4761C72.8014 93.7015 71.8146 92.7508 71.5777 93.0056C71.2817 93.3193 72.9396 94.5837 72.6633 95.6226C72.3277 96.8674 69.5053 97.2888 66.6236 97.6123C57.5839 98.6218 55.8273 98.024 54.9292 99.2981C53.064 101.954 58.6892 107.326 56.7648 109.786C55.2253 111.746 50.2317 110.207 50.1429 110.58C50.0442 110.991 53.1825 111.697 56.1628 112.138C59.1431 112.579 63.4952 113.187 69.4658 112.559C72.1501 112.275 76.7884 111.57 82.2951 109.541C84.5551 108.708 87.7032 107.522 91.4434 105.14C94.3744 103.258 96.3482 101.484 97.9568 100.023C98.4897 99.5432 101.509 96.7596 104.648 92.5156C107.233 89.0067 107.125 88.2519 106.898 87.9187C106.355 87.1248 104.243 87.5462 103.069 87.9677C101.736 88.4382 101.658 88.889 100.256 89.5653C98.3416 90.4965 95.4896 91.1238 94.6409 90.0848C94.0882 89.3987 94.9764 88.4382 94.4632 87.7423C93.9007 86.968 92.2033 87.1934 90.5158 87.6443V87.6247Z" fill="#758636" stroke="white" stroke-miterlimit="10"/>
<path d="M27.3066 86.7818C27.958 85.1253 28.6192 83.4591 29.2705 81.8026C29.5962 81.8614 29.9613 81.9497 30.356 82.1065C31.2837 82.4789 31.8956 83.0474 32.2706 83.4689C33.4548 81.5184 34.6292 79.5679 35.8134 77.6174C36.751 81.9987 37.8365 83.0964 38.7543 83.0964C39.8103 83.0964 40.2445 81.636 41.5768 81.44C43.9354 81.1067 45.0999 85.3409 46.7381 84.9097C47.271 84.7725 47.9519 84.106 48.5638 81.7536C49.077 83.067 49.5901 84.3804 50.1033 85.7036C50.5375 86.4093 51.2777 87.3502 52.4027 87.4482C53.962 87.5855 55.3436 86.027 55.6791 86.3603C56.0838 86.7621 53.7646 88.8989 54.1495 90.3593C54.7811 92.7998 62.5971 91.9373 62.5675 92.2117C62.5675 92.2705 62.2517 92.3392 61.2451 92.4372C59.5279 92.8488 57.9884 93.8388 57.6331 95.0541C57.1496 96.7498 58.847 99.2688 62.3603 99.651C62.4096 101.092 62.7747 102.092 63.0807 102.729C65.3603 107.384 72.9198 107.982 76.2357 108.266C81.7227 108.727 85.3543 107.747 85.4826 108.266C85.6208 108.845 81.2292 110.423 77.0646 111.579C72.9 112.736 66.811 114.383 58.4917 114.5C54.7515 114.549 48.2776 114.334 40.5998 112.324C37.4418 111.501 33.0601 110.325 27.8593 107.482C23.7736 105.248 21.0301 103.003 18.7998 101.141C18.0596 100.523 13.8556 96.9948 9.52321 91.3394C5.94087 86.6739 6.09877 85.5468 6.41457 85.0273C7.18433 83.7727 10.1252 84.0276 11.7535 84.4294C13.6089 84.8901 13.7174 85.5272 15.6615 86.2721C18.3261 87.3012 22.3131 87.7227 23.4973 86.0662C24.4052 84.7921 23.2999 82.871 23.7638 82.6162C24.3164 82.3025 25.8263 84.4098 27.3165 86.7719L27.3066 86.7818Z" fill="#758636" stroke="white" stroke-miterlimit="10"/>
</g>
<defs>
<clipPath id="clip0_193_1107">
<rect width="115" height="115" fill="white"/>
</clipPath>
</defs>
</svg>
