<svg width="115" height="115" viewBox="0 0 115 115" fill="none" xmlns="http://www.w3.org/2000/svg">
<g clip-path="url(#clip0_161_609)">
<path d="M96.8536 15.0585C114.92 31.5242 115.05 53.4185 114.99 58.7174C114.94 63.4476 114.681 87.5972 94.2954 103.444C77.3734 116.597 57.9828 115.16 53.583 114.721C49.4023 114.351 27.1946 111.956 12.1639 93.1755C0.696767 78.8754 0.129382 63.4575 0.0198866 58.7174C-0.0896087 53.7877 -0.209058 35.8951 13.2688 20.1479C29.5836 1.09768 53.0256 0.0997614 56.8082 -3.03529e-05C61.3472 -0.0199887 80.7478 0.389157 96.8437 15.0585H96.8536Z" fill="#758636"/>
<path d="M51.7415 50.5046C51.5126 50.1354 51.5325 49.7063 51.5723 49.4269V30.7858C51.652 30.2669 52.0601 28.1613 53.9314 26.8839C55.544 25.7862 57.286 25.9459 58.4805 26.0557C59.2967 26.1255 61.0785 26.2952 62.273 27.2631C63.9851 28.6403 63.0992 30.5163 63.4078 38.0107C63.567 41.9525 62.8105 45.9441 63.368 49.856C63.3879 49.9857 63.4376 50.325 63.2585 50.6344C62.7309 51.5624 60.8894 51.0535 57.714 51.0136C54.1903 50.9637 52.3686 51.5325 51.7316 50.5146L51.7415 50.5046Z" fill="#758636" stroke="white" stroke-width="2" stroke-miterlimit="10"/>
<path d="M51.5723 43.2198C51.3334 44.2077 51.204 45.7545 51.7017 48.1894C51.8012 48.6385 52.0501 49.4767 52.7668 50.1653C53.1052 50.4946 53.6029 50.8339 54.897 51.1532C56.0915 51.4526 58.8488 52.1412 61.8051 50.8439C62.3028 50.6244 62.6811 50.4048 62.92 50.2651C63.2485 49.0277 63.3779 48.0098 63.4276 47.3212C63.5073 46.2335 63.4376 45.5948 63.4276 42.3516C63.4276 41.9924 63.4276 41.703 63.4276 41.5233L63.5172 41.224C77.1345 41.4834 84.0128 41.4136 84.0128 41.4136C86.561 41.3936 90.2042 41.3337 94.604 41.1741C95.0718 41.1741 96.4654 41.2539 97.6798 42.2818C98.6155 43.0701 98.9738 44.0281 99.1231 44.4472C99.2227 44.7167 99.3819 45.2456 99.3521 47.7204C99.3123 50.4846 99.0933 50.9437 98.934 51.2231C98.3169 52.2909 97.2916 52.7599 96.983 52.8996C95.8582 53.3986 94.823 53.2988 94.604 53.2788C90.8114 52.9695 22.2474 53.3187 22.2474 53.3187C21.9986 53.2988 19.2313 53.0593 17.9572 50.784C16.912 48.9279 17.5391 46.8921 17.7681 46.1537C17.8577 45.8643 18.0667 45.2655 18.4748 44.577C18.5943 44.3874 19.6295 42.7208 21.5606 41.7828C22.9243 41.1242 23.8998 41.2439 28.2398 41.4236C28.4588 41.4236 29.8723 41.4934 32.6893 41.5832C36.5416 41.703 48.3571 41.6431 50.6565 41.3238C50.7959 41.3038 51.204 41.2439 51.4628 41.4735C51.9107 41.8726 51.6519 42.8406 51.5623 43.1998L51.5723 43.2198Z" fill="#758636" stroke="white" stroke-width="2" stroke-miterlimit="10"/>
<path d="M25.403 53.8377C47.5011 53.668 69.6092 53.4984 91.7074 53.3287C91.7074 53.3287 88.5718 76.0613 88.1637 78.3964C87.7556 80.7315 85.8345 88.8446 79.6629 88.8446C73.4914 88.8446 40.6925 89.4533 40.6925 89.4533C40.6925 89.4533 36.9796 89.623 34.1029 86.9486C32.6098 85.5615 31.9827 84.0147 31.5845 82.9569C27.5033 72.3091 26.3685 67.5291 26.3685 67.5291C24.7858 60.873 23.3027 54.4963 24.7958 53.8277C25.0048 53.7379 25.2338 53.7778 25.403 53.8277V53.8377Z" fill="#758636" stroke="white" stroke-width="2" stroke-miterlimit="10"/>
<path d="M54.1406 61.4218C54.1406 61.4218 52.966 59.0368 53.1551 62.769C53.3443 66.5012 53.2945 81.46 53.2945 81.46C53.2945 81.46 54.3198 83.1565 54.3098 81.46C54.2999 79.7636 54.1505 61.4318 54.1505 61.4318L54.1406 61.4218Z" fill="white" stroke="white" stroke-width="2" stroke-miterlimit="10"/>
<path d="M43.5593 61.5016C43.5593 61.5016 42.3847 59.1165 42.5738 62.8487C42.753 66.581 42.7132 81.5397 42.7132 81.5397C42.7132 81.5397 43.7385 83.2362 43.7285 81.5397C43.7186 79.8433 43.5692 61.5115 43.5692 61.5115L43.5593 61.5016Z" fill="white" stroke="white" stroke-width="2" stroke-miterlimit="10"/>
<path d="M64.8911 61.3321C64.8911 61.3321 63.7165 58.9471 63.9056 62.6793C64.0948 66.4115 64.045 81.3703 64.045 81.3703C64.045 81.3703 65.0703 83.0668 65.0603 81.3703C65.0504 79.6738 64.901 61.3421 64.901 61.3421L64.8911 61.3321Z" fill="white" stroke="white" stroke-width="2" stroke-miterlimit="10"/>
<path d="M75.6316 61.2422C75.6316 61.2422 74.457 58.8571 74.6461 62.5893C74.8352 66.3216 74.7855 81.2803 74.7855 81.2803C74.7855 81.2803 75.8107 82.9768 75.8008 81.2803C75.7908 79.5839 75.6415 61.2521 75.6415 61.2521L75.6316 61.2422Z" fill="white" stroke="white" stroke-width="2" stroke-miterlimit="10"/>
</g>
<defs>
<clipPath id="clip0_161_609">
<rect width="115" height="115" fill="white"/>
</clipPath>
</defs>
</svg>
