<svg width="259" height="93" viewBox="0 0 259 93" fill="none" xmlns="http://www.w3.org/2000/svg">
<g clip-path="url(#clip0_233_1092)">
<path fill-rule="evenodd" clip-rule="evenodd" d="M135.692 17.3965C137.161 17.3965 138.57 17.965 139.608 18.977C140.647 19.989 141.231 21.3616 141.231 22.7928C141.232 24.6576 141.893 26.4648 143.103 27.9098C144.313 29.3548 145.997 30.3493 147.871 30.7254C149.311 31.0103 150.575 31.8406 151.386 33.0337C152.197 34.2269 152.489 35.6852 152.197 37.0877C151.904 38.4903 151.052 39.7223 149.828 40.5127C148.603 41.3031 147.106 41.5871 145.667 41.3023C144.133 40.9983 142.644 40.5136 141.231 39.8588V55.1709C141.23 58.1989 140.359 61.1661 138.714 63.7356C137.07 66.305 134.719 68.3736 131.929 69.7065C129.138 71.0393 126.02 71.5829 122.928 71.2756C119.837 70.9682 116.896 69.8221 114.439 67.9676C111.982 66.1131 110.109 63.6245 109.031 60.7844C107.953 57.9443 107.714 54.8667 108.342 51.9011C108.97 48.9355 110.438 46.2008 112.581 44.0077C114.724 41.8146 117.455 40.251 120.464 39.4945C121.878 39.1624 123.368 39.3851 124.615 40.1147C125.861 40.8442 126.763 42.022 127.126 43.3939C127.489 44.7658 127.283 46.2216 126.554 47.4472C125.825 48.6727 124.63 49.5697 123.228 49.9445C121.929 50.2802 120.8 51.0637 120.05 52.1494C119.3 53.2351 118.98 54.5492 119.15 55.8475C119.32 57.1458 119.967 58.3399 120.972 59.208C121.977 60.0761 123.272 60.5591 124.615 60.5672C126.084 60.5672 127.493 59.9987 128.531 58.9867C129.57 57.9747 130.154 56.6021 130.154 55.1709V22.7928C130.154 21.3616 130.737 19.989 131.776 18.977C132.814 17.965 134.223 17.3965 135.692 17.3965Z" fill="#D95829"/>
</g>
<path d="M71.0769 12H19.3846C15.3231 12 12 15.2378 12 19.1951V69.561C12 73.5219 15.3231 76.7561 19.3846 76.7561H45.2308V51.5732H37.8462V42.6692H45.2308V35.2942C45.2308 27.5091 49.7058 22.0408 59.136 22.0408L65.7932 22.048V31.4196H61.3735C57.7034 31.4196 56.3077 34.1034 56.3077 36.5929V42.6728H65.7895L63.6923 51.5732H56.3077V76.7561H71.0769C75.1385 76.7561 78.4615 73.5219 78.4615 69.561V19.1951C78.4615 15.2378 75.1385 12 71.0769 12Z" fill="#D95829"/>
<path fill-rule="evenodd" clip-rule="evenodd" d="M215.076 12C206.051 12 204.921 12.0389 201.375 12.1943C197.84 12.3529 195.424 12.9001 193.31 13.6998C191.092 14.512 189.083 15.7861 187.422 17.433C185.732 19.0512 184.424 21.0092 183.59 23.1704C182.77 25.2297 182.208 27.5836 182.045 31.0286C181.882 34.4833 181.846 35.5842 181.846 44.3781C181.846 53.1719 181.882 54.2728 182.045 57.7275C182.208 61.1725 182.77 63.5264 183.59 65.5857C184.424 67.7469 185.732 69.7048 187.422 71.3231C189.083 72.9699 191.092 74.2439 193.31 75.0563C195.424 75.856 197.84 76.4032 201.375 76.5618C204.921 76.7173 206.051 76.7561 215.076 76.7561C224.102 76.7561 225.232 76.7173 228.778 76.5618C232.313 76.4032 234.729 75.856 236.843 75.0563C239.061 74.244 241.07 72.97 242.731 71.3231C244.421 69.7049 245.729 67.7469 246.563 65.5857C247.383 63.5264 247.945 61.1725 248.108 57.7275C248.267 54.2728 248.307 53.1719 248.307 44.3781C248.307 35.5842 248.267 34.4833 248.108 31.0286C247.945 27.5836 247.383 25.2297 246.563 23.1704C245.729 21.0092 244.421 19.0512 242.731 17.433C241.07 15.7861 239.061 14.512 236.843 13.6998C234.729 12.9001 232.313 12.3529 228.778 12.1943C225.232 12.0389 224.102 12 215.076 12ZM215.076 17.8345C223.949 17.8345 224.999 17.8669 228.502 18.0223C231.745 18.168 233.503 18.6925 234.676 19.1361C236.225 19.7254 237.334 20.428 238.498 21.558C239.661 22.6912 240.378 23.7727 240.983 25.2815C241.435 26.4244 241.98 28.1372 242.126 31.2941C242.286 34.71 242.319 35.7299 242.319 44.3781C242.319 53.023 242.286 54.0461 242.126 57.4588C241.977 60.6189 241.435 62.3317 240.983 63.4746C240.45 64.8811 239.601 66.1534 238.498 67.1981C237.334 68.3313 236.225 69.0307 234.676 69.62C233.503 70.0603 231.745 70.5913 228.505 70.7338C225.003 70.8892 223.952 70.9216 215.076 70.9216C206.204 70.9216 205.15 70.8892 201.651 70.7338C198.408 70.5881 196.65 70.0603 195.477 69.62C194.033 69.1011 192.728 68.2735 191.655 67.1981C190.552 66.1535 189.702 64.8812 189.17 63.4746C188.715 62.3317 188.173 60.6189 188.027 57.462C187.867 54.0461 187.834 53.0262 187.834 44.3781C187.834 35.7331 187.867 34.71 188.027 31.2973C188.176 28.1372 188.715 26.4244 189.17 25.2815C189.775 23.7727 190.496 22.6912 191.655 21.558C192.819 20.4248 193.928 19.7254 195.477 19.1361C196.65 18.6925 198.408 18.1648 201.648 18.0223C205.154 17.8669 206.201 17.8345 215.076 17.8345ZM215.076 55.1697C212.139 55.1697 209.322 54.0327 207.245 52.0089C205.168 49.985 204.001 47.2402 204.001 44.3781C204.001 41.5159 205.168 38.7711 207.245 36.7472C209.322 34.7234 212.139 33.5864 215.076 33.5864C218.014 33.5864 220.831 34.7234 222.908 36.7472C224.985 38.7711 226.152 41.5159 226.152 44.3781C226.152 47.2402 224.985 49.985 222.908 52.0089C220.831 54.0327 218.014 55.1697 215.076 55.1697ZM215.076 27.7519C212.836 27.7519 210.617 28.182 208.546 29.0175C206.476 29.8531 204.595 31.0777 203.01 32.6216C201.426 34.1655 200.169 35.9983 199.311 38.0155C198.454 40.0327 198.012 42.1947 198.012 44.3781C198.012 46.5614 198.454 48.7234 199.311 50.7406C200.169 52.7578 201.426 54.5906 203.01 56.1345C204.595 57.6784 206.476 58.9031 208.546 59.7386C210.617 60.5741 212.836 61.0042 215.076 61.0042C219.602 61.0042 223.942 59.2525 227.143 56.1345C230.343 53.0165 232.14 48.7876 232.14 44.3781C232.14 39.9685 230.343 35.7396 227.143 32.6216C223.942 29.5036 219.602 27.7519 215.076 27.7519ZM236.803 27.0946C236.803 27.6049 236.7 28.1101 236.499 28.5815C236.299 29.0529 236.005 29.4812 235.635 29.842C235.264 30.2028 234.825 30.489 234.341 30.6843C233.857 30.8795 233.339 30.98 232.815 30.98C232.291 30.98 231.773 30.8795 231.289 30.6843C230.805 30.489 230.366 30.2028 229.995 29.842C229.625 29.4812 229.331 29.0529 229.131 28.5815C228.931 28.1101 228.827 27.6049 228.827 27.0946C228.827 26.0642 229.248 25.0759 229.995 24.3473C230.743 23.6186 231.757 23.2093 232.815 23.2093C233.873 23.2093 234.887 23.6186 235.635 24.3473C236.383 25.0759 236.803 26.0642 236.803 27.0946Z" fill="#D95829"/>
<defs>
<clipPath id="clip0_233_1092">
<rect width="66.4615" height="64.7561" fill="white" transform="translate(96.9229 12)"/>
</clipPath>
</defs>
</svg>
