<svg width="115" height="115" viewBox="0 0 115 115" fill="none" xmlns="http://www.w3.org/2000/svg">
<g clip-path="url(#clip0_161_619)">
<path d="M96.8536 15.0585C114.92 31.5242 115.05 53.4185 114.99 58.7174C114.94 63.4476 114.681 87.5972 94.2954 103.444C77.3734 116.597 57.9828 115.16 53.583 114.721C49.4023 114.351 27.1946 111.956 12.1639 93.1755C0.696767 78.8754 0.129382 63.4575 0.0198866 58.7174C-0.0896087 53.7877 -0.209058 35.8951 13.2688 20.1479C29.5836 1.09768 53.0256 0.0997614 56.8082 -3.03529e-05C61.3472 -0.0199887 80.7478 0.389157 96.8437 15.0585H96.8536Z" fill="#758636"/>
<path d="M89.8062 24.9479C78.6178 15.6374 63.7463 14.5995 54.1306 21.4952C45.809 27.4727 44.3457 37.3121 44.067 39.6273C43.8381 42.1421 43.639 48.3292 47.3519 54.5162C53.9515 65.5333 66.9018 66.5312 68.146 66.601C76.5672 67.11 82.6293 63.3678 84.3414 62.28C86.382 60.9827 92.7626 56.7915 95.2909 48.7682C99.183 36.434 90.5627 25.8461 89.8062 24.9479Z" fill="#758636" stroke="white" stroke-width="2" stroke-miterlimit="10"/>
<path d="M74.7057 22.2237C73.7402 22.044 63.4675 20.3476 55.8825 27.7521C49.91 33.5899 49.7507 41.0244 49.7507 42.5113C49.9299 44.2377 50.8756 51.2331 56.9774 56.542C58.3013 57.6897 62.711 61.4219 69.4499 61.7212C78.976 62.1404 84.9983 55.3545 85.6453 54.5961C86.1629 53.9874 92.9019 45.8544 89.5871 35.6057C86.143 24.9679 75.2034 22.3334 74.7057 22.2237Z" fill="#758636" stroke="white" stroke-width="2" stroke-miterlimit="10"/>
<path d="M50.995 60.9529L48.2477 64.5154C48.0785 64.4056 47.8993 64.2959 47.7102 64.1761C47.2025 63.8668 46.6948 63.6073 46.217 63.3778L46.0478 63.5774C45.5601 64.1462 26.2789 86.9187 25.8011 87.4875C25.6319 87.7868 24.4175 90.0122 25.5423 92.3374C26.5875 94.5128 29.1457 95.6504 31.266 95.4209C32.6396 95.2712 33.6549 94.5627 34.8693 93.7245C36.4521 92.6267 37.3778 91.4891 37.6167 91.2097C39.4582 88.9844 46.5057 80.9212 56.2309 69.7645L56.5096 69.3154C56.0219 69.046 55.5341 68.7665 55.0464 68.4971C55.9522 67.3595 56.858 66.2318 57.7638 65.0942L51.005 60.9429L50.995 60.9529Z" fill="#758635" stroke="white" stroke-width="2" stroke-miterlimit="10"/>
</g>
<defs>
<clipPath id="clip0_161_619">
<rect width="115" height="115" fill="white"/>
</clipPath>
</defs>
</svg>
