<svg width="336" height="126" viewBox="0 0 336 126" fill="none" xmlns="http://www.w3.org/2000/svg">
<g clip-path="url(#clip0_176_792)">
<g filter="url(#filter0_dd_176_792)">
<path d="M129.711 29.5746C130.999 28.7396 132.979 27.6055 135.556 26.7144C138.86 25.574 140.444 25.7672 143.127 24.5271C145.627 23.3743 147.21 21.8351 148.534 20.5328C153.416 15.7221 152.677 12.7061 157.429 6.56185C160.053 3.17817 162.482 0.118527 165.998 0.000129683C168.965 -0.0933421 171.364 1.98173 172.038 2.56749C174.609 4.79212 174.325 6.56808 177.268 11.5034C178.261 13.161 179.94 15.9402 182.558 18.5075C184.372 20.2835 187.079 22.3897 190.956 23.9414C194.36 25.5553 197.77 27.1693 201.174 28.7832C204.821 31.2883 206.718 35.5132 205.938 39.3019C205.199 42.8975 202.291 44.9414 201.34 45.5334C200.057 46.331 198.84 46.6675 195.92 47.085C193.397 47.4464 189.874 47.8265 185.56 47.9075C188.225 50.4624 190.199 52.8678 191.6 54.7497C193.408 57.1862 194.313 58.4013 195.294 60.358C196.677 63.1061 196.623 64.1343 197.817 64.9194C199.643 66.1221 200.973 64.5144 203.857 65.2061C204.135 65.2746 208.118 66.2966 209.625 70.2411C209.702 70.4405 211.002 74.0049 209.176 77.2764C207.61 80.0743 204.797 80.7972 202.232 81.4577C196.978 82.8162 189.407 82.355 187.469 78.3794C187.156 77.7375 186.695 76.404 186.636 74.7713C186.588 73.469 186.541 72.1791 187.262 70.9702C187.965 69.7924 189.006 69.3624 188.917 68.4651C188.876 68.0601 188.621 67.761 188.438 67.5802C188.225 67.2749 187.894 66.8013 187.504 66.2156C186.99 65.4429 186.63 64.8571 186.512 64.6764C186.062 63.9535 185.3 62.8007 183.958 60.9251C181.246 57.6411 178.882 55.5722 177.978 55.0613C177.546 54.8182 176.636 54.4693 175.903 54.2387C175.507 54.1141 175.436 54.1078 175.359 54.1452C174.727 54.4443 175.549 56.9743 175.933 60.196C176.211 62.5702 176.802 67.5616 176.205 69.9233C176.134 70.2162 175.862 71.1696 176.317 71.7553C176.53 72.0233 176.807 72.1043 177.002 72.1791C177.664 72.4159 177.93 72.7399 179.177 73.8553C181.305 75.7621 182.097 76.2295 183.864 77.9432C186.848 80.8346 188.751 83.539 190.897 86.5924C192.297 88.5803 193.385 90.3001 194.141 91.534C194.52 92.101 196.399 94.9301 197.569 96.382C197.711 96.5565 197.977 96.8805 198.261 96.8307C198.804 96.7435 198.999 95.385 199.041 95.0485C204.259 85.8073 211.847 81.7817 216.44 83.8942C217.296 84.2868 219.182 85.4147 220.559 88.9978C220.606 89.6209 220.653 90.593 220.582 91.777C220.086 100.426 214.3 106.701 209.803 111.587C209.318 112.11 206.942 114.665 203.355 117.432C196.807 122.486 194.431 121.906 193.799 121.707C192.031 121.165 190.974 119.681 190.69 119.283C189.1 117.046 189.006 113.973 188.935 111.68C188.893 110.409 188.976 109.599 188.621 108.303C188.172 106.67 187.386 105.58 187.091 105.168C179.621 94.793 181.222 96.6064 179.52 94.6622C175.555 90.1443 171.949 86.0939 168.427 82.2117C168.338 82.0185 168.179 81.7693 167.937 81.7132C166.849 81.4515 165.407 85.2713 163.764 88.0568C162.192 90.7239 160.011 92.5871 155.626 96.3135C152.949 98.588 149.22 101.423 144.415 104.171C147.47 104.576 152.813 105.841 157.269 110.266C159.084 112.067 163.144 116.098 162.204 120.398C161.69 122.747 159.905 124.162 159.32 124.579C155.088 127.614 148.924 125.084 144.297 123.184C143.339 122.791 140.384 121.532 136.602 119.002C130.143 114.671 126.732 110.272 123.382 105.947C121.124 103.037 119.109 99.9838 119.292 96.1889C119.316 95.709 119.369 95.3102 119.41 95.0485C121.431 89.4153 126.266 86.3805 130.261 87.3153C133.34 88.0319 135.048 90.8984 135.521 91.7521C138.789 90.5245 141.3 89.0663 143.032 87.9197C146.572 85.5767 148.812 84.0438 149.433 81.358C149.953 79.1147 148.788 78.4541 149.574 76.6346C150.685 74.0672 153.327 74.6716 154.84 71.8488C155.006 71.5435 155.283 70.0541 155.833 67.0942C156.347 64.3274 156.601 62.9378 156.643 62.3396C156.678 61.8224 157.021 56.3449 155.473 55.6221C154.373 55.1111 151.956 56.7998 146.46 65.0939C144.427 68.8328 143.121 70.7957 142.222 71.8426C142.075 72.017 141.785 72.3411 141.773 72.796C141.732 74.0173 143.706 74.3227 144.841 76.0301C145.845 77.5443 145.863 79.6755 145.29 81.1648C145.095 81.6696 144.403 83.215 141.413 84.5859C139.858 85.3025 132.495 88.3497 126.266 83.8257C122.726 81.2521 121.035 77.3075 121.035 75.0829C121.035 74.4722 121.035 73.0639 121.94 71.9485C122.341 71.45 122.779 71.182 123.175 70.9639C124.091 70.4592 125.704 69.6927 128.163 69.0945C130.261 69.7488 131.112 69.4372 131.496 69.001C131.921 68.5212 131.78 67.8918 132.306 66.5271C132.589 65.7981 132.914 65.2372 133.151 64.882L145.532 48.7862C145.532 48.7862 145.591 48.7363 145.591 48.6989C145.603 48.2378 140.733 48.0883 137.713 47.2346C135.237 46.5366 131.886 44.7669 128.429 39.9126C128.086 39.277 127.058 37.177 127.436 34.3978C127.796 31.7494 129.209 30.0918 129.705 29.5559L129.711 29.5746Z" fill="#D95829"/>
</g>
<path d="M157.901 32.7713C157.712 33.1826 157.523 33.5938 157.328 34.0051L157.086 35.7562C157.169 36.3357 157.334 37.0959 157.689 37.9309C157.943 38.5292 158.238 39.009 158.498 39.3891C157.831 39.4888 157.045 39.5511 156.152 39.5137C154.787 39.4576 153.634 39.1835 152.772 38.8968C151.365 38.8158 150.159 38.0119 149.722 36.8217C149.285 35.6253 149.787 34.4662 149.964 34.0674C150.467 32.9146 151.347 32.3289 151.737 32.1045C152.086 31.9051 152.405 31.793 152.63 31.7306C152.713 31.6995 152.837 31.6559 152.978 31.6122C153.333 31.5001 154.468 31.1636 155.998 31.1636C156.643 31.1636 157.5 31.2259 158.492 31.4689C158.292 31.8989 158.091 32.3351 157.89 32.7651L157.901 32.7713Z" fill="white"/>
<path d="M164.816 32.3912C166.884 32.6654 168.362 33.5129 168.811 34.2295C169.171 34.8028 169.278 35.3948 169.284 35.3948C169.302 35.4758 169.355 35.7936 169.325 36.2547C169.29 36.7844 169.236 37.6256 168.693 38.1865C168.385 38.5105 167.995 38.6102 167.221 38.8221C166.612 38.9841 166.086 39.0464 165.72 39.0776H163.977L164.757 37.744C164.958 37.3265 165.247 36.5787 165.235 35.6191C165.218 33.7808 164.118 32.5719 163.853 32.2915C164.172 32.3227 164.491 32.3538 164.816 32.385V32.3912Z" fill="white"/>
<path d="M180.885 32.7713C180.696 33.1826 180.507 33.5938 180.312 34.0051L180.07 35.7562C180.153 36.3357 180.318 37.0959 180.673 37.9309C180.927 38.5292 181.222 39.009 181.482 39.3891C180.814 39.4888 180.028 39.5511 179.136 39.5137C177.771 39.4576 176.618 39.1835 175.756 38.8968C174.349 38.8158 173.143 38.0119 172.706 36.8217C172.269 35.6253 172.771 34.4662 172.948 34.0674C173.451 32.9146 174.331 32.3289 174.721 32.1045C175.07 31.9051 175.389 31.793 175.614 31.7306C175.696 31.6995 175.821 31.6559 175.962 31.6122C176.317 31.5001 177.452 31.1636 178.982 31.1636C179.627 31.1636 180.483 31.2259 181.476 31.4689C181.275 31.8989 181.074 32.3351 180.874 32.7651L180.885 32.7713Z" fill="white"/>
<path d="M187.8 32.3912C189.868 32.6654 191.346 33.5129 191.795 34.2295C192.155 34.8028 192.262 35.3948 192.268 35.3948C192.285 35.4758 192.339 35.7936 192.309 36.2547C192.274 36.7844 192.22 37.6256 191.677 38.1865C191.369 38.5105 190.979 38.6102 190.205 38.8221C189.596 38.9841 189.07 39.0464 188.704 39.0776H186.961L187.741 37.744C187.942 37.3265 188.231 36.5787 188.219 35.6191C188.202 33.7808 187.102 32.5719 186.836 32.2915C187.156 32.3227 187.475 32.3538 187.8 32.385V32.3912Z" fill="white"/>
</g>
<g clip-path="url(#clip1_176_792)">
<path d="M0.100083 62.1292C-0.0130165 57.0436 2.70138 49.9547 6.93131 48.5655C14.7522 45.9958 17.0368 70.8279 18.8577 70.345C22.0075 69.5103 18.3713 42.0251 29.9019 37.0288C33.5493 35.4489 34.9461 39.5627 35.0027 44.082C35.144 55.0642 29.3307 96.2622 18.1621 95.8509C9.4195 95.5229 0.326283 72.3841 0.100083 62.1292Z" fill="#F9F6EE"/>
<path d="M52.8102 54.0029C52.8554 57.1568 52.9459 60.6864 53.0251 64.1801C53.1891 71.5493 54.2579 95.3261 47.5906 96.2085C39.176 97.3294 37.7736 73.0696 37.6209 64.8121C37.5304 59.8219 37.6096 54.9151 37.4908 51.2245C37.3042 45.3042 37.7849 35.0732 43.5756 32.7241C52.4935 29.1111 52.7367 48.7085 52.8102 53.9969V54.0029Z" fill="#F9F6EE"/>
<path d="M77.0647 75.8898C80.2088 75.7169 81.9053 79.5267 82.239 84.9582C82.6179 91.0872 78.993 96.316 73.0213 96.1729C63.0233 95.9284 57.0686 92.7983 57.0573 81.0172C57.0517 70.1722 56.4353 58.8323 56.1412 47.7905C55.9716 41.4289 55.6662 28.2885 61.7962 26.7145C68.8367 24.902 69.8885 39.5986 69.9168 45.668C69.9168 45.8051 69.9168 45.8707 69.9224 46.0078C70.1034 54.7423 70.5614 63.4708 70.7141 72.1993C70.7763 75.705 74.2428 76.0568 77.0703 75.8958L77.0647 75.8898Z" fill="#F9F6EE"/>
<path d="M95.2509 96.6199C84.1785 96.8941 83.9862 80.4089 83.941 72.5986C83.9014 66.0462 84.0484 59.3866 83.9692 52.8819C83.8675 44.7437 81.5037 23.0655 93.1982 21.6883C113.675 19.2736 119.177 43.0802 119.72 59.6668C120.235 75.4306 112.9 96.1846 95.2509 96.6199ZM105.255 55.1952C105.221 50.9443 102.314 45.5187 99.7636 45.6976C97.3772 45.8645 97.2415 48.1719 97.2867 52.4944C97.3376 57.3058 97.3603 59.7085 97.4112 64.5199C97.4394 67.4056 97.954 70.3211 99.0454 69.9872C103.06 68.7709 105.289 60.74 105.249 55.1952H105.255Z" fill="#F9F6EE"/>
</g>
<path d="M220.674 44.5249C220.645 38.6964 220.924 21.6843 227.879 22.4417C236.238 23.3471 235.534 46.0812 239.313 46.5191C243.245 46.9688 244.819 25.5424 251.763 25.5187C258.844 25.495 260.043 41.6432 259.867 48.7913C259.622 59.0045 259.355 69.4366 259.264 79.6084C259.219 84.9635 257.366 96.2477 252.451 96.6086C247.2 96.9933 245.922 85.4487 246.058 80.4664C246.16 76.7562 246.399 72.8272 246.439 69.768C246.479 66.7087 246.348 64.5785 245.319 64.5134C241.586 64.2827 243.103 76.8154 240.336 76.7207C237.17 76.6142 236.903 63.9276 234.914 63.8389C234.039 63.7974 233.704 65.5904 233.687 67.7502C233.647 72.0757 234.068 74.6438 234.062 78.9338C234.051 83.8688 233.698 95.7921 228.868 96.5731C221.787 97.7211 220.549 79.7977 220.634 73.7089C220.736 66.1052 220.634 58.2944 220.657 50.6079C220.662 48.667 220.696 46.5782 220.685 44.5309L220.674 44.5249Z" fill="#F9F6EE"/>
<path d="M261.314 88.5987C261.497 79.0799 267.32 25.8337 282.211 30.4276C288.463 32.355 291.524 44.2801 293.12 50.8014C295.751 61.5795 297.616 72.7537 297.708 83.5791C297.759 89.7161 294.624 97.0119 290.54 96.6098C284.018 95.9713 286.598 82.7159 283.664 77.6609C282.966 76.9751 281.238 76.1829 279.493 76.0291C277.989 75.8991 276.473 76.307 275.89 77.454C273.762 83.0529 273.47 96.0068 266.239 96.4206C262.813 96.6157 261.222 93.228 261.314 88.5928V88.5987ZM283.275 58.8066C283.349 55.4484 283.383 49.9736 281.404 49.5775C278.79 49.0572 278.212 53.6925 278.132 57.766C278.075 60.4443 278.927 61.745 280.826 62.0229C282.491 62.2653 283.229 61.1183 283.28 58.8066H283.275Z" fill="#F9F6EE"/>
<path d="M311.094 97.3945C301.268 97.6608 300.317 85.2423 300.604 77.7285C300.796 72.741 301.2 67.1618 301.245 61.6773C301.285 56.5833 300.818 36.0949 310.97 40.9285C323.585 46.9337 335.323 60.287 335.531 75.7938C335.711 89.4015 322.528 97.081 311.094 97.3886V97.3945ZM321.729 69.3035C321.769 66.4223 319.086 61.7956 316.651 61.0916C314.367 60.429 314.181 62.0619 314.131 65.2153C314.069 68.7237 314.041 70.475 313.979 73.9834C313.945 76.0896 313.99 78.0302 315.447 78.2432C317.832 78.5982 321.656 74.7407 321.724 69.3035H321.729Z" fill="#F9F6EE"/>
<defs>
<filter id="filter0_dd_176_792" x="115.28" y="-0.00292969" width="109.338" height="133.991" filterUnits="userSpaceOnUse" color-interpolation-filters="sRGB">
<feFlood flood-opacity="0" result="BackgroundImageFix"/>
<feColorMatrix in="SourceAlpha" type="matrix" values="0 0 0 0 0 0 0 0 0 0 0 0 0 0 0 0 0 0 127 0" result="hardAlpha"/>
<feOffset dy="4"/>
<feGaussianBlur stdDeviation="2"/>
<feComposite in2="hardAlpha" operator="out"/>
<feColorMatrix type="matrix" values="0 0 0 0 0 0 0 0 0 0 0 0 0 0 0 0 0 0 0.25 0"/>
<feBlend mode="normal" in2="BackgroundImageFix" result="effect1_dropShadow_176_792"/>
<feColorMatrix in="SourceAlpha" type="matrix" values="0 0 0 0 0 0 0 0 0 0 0 0 0 0 0 0 0 0 127 0" result="hardAlpha"/>
<feOffset dy="4"/>
<feGaussianBlur stdDeviation="2"/>
<feComposite in2="hardAlpha" operator="out"/>
<feColorMatrix type="matrix" values="0 0 0 0 0 0 0 0 0 0 0 0 0 0 0 0 0 0 0.25 0"/>
<feBlend mode="normal" in2="effect1_dropShadow_176_792" result="effect2_dropShadow_176_792"/>
<feBlend mode="normal" in="SourceGraphic" in2="effect2_dropShadow_176_792" result="shape"/>
</filter>
<clipPath id="clip0_176_792">
<rect width="101.344" height="126" fill="white" transform="translate(119.286)"/>
</clipPath>
<clipPath id="clip1_176_792">
<rect width="254.073" height="78.0736" fill="white" transform="translate(0.100098 18.5522)"/>
</clipPath>
</defs>
</svg>
