<svg width="174" height="187" viewBox="0 0 174 187" fill="none" xmlns="http://www.w3.org/2000/svg">
<g clip-path="url(#clip0_384_1224)" filter="url(#filter0_d_384_1224)">
<mask id="path-1-inside-1_384_1224" fill="white">
<path d="M28.1307 37.9606C24.3104 39.2267 21.3751 40.8381 19.4649 42.0245L19.4562 41.998C18.7201 42.7594 16.626 45.1145 16.0915 48.8774C15.5307 52.8262 17.0553 55.8099 17.5635 56.713C22.6894 63.6101 27.6576 66.1246 31.3289 67.1162C35.8064 68.3292 43.0265 68.5417 43.0089 69.1969C43.0089 69.25 42.9213 69.3208 42.9213 69.3208L33.7429 80.7555L24.5645 92.1902C24.5645 92.1902 23.7321 93.4917 23.3115 94.5276C22.5317 96.4666 22.742 97.3608 22.1111 98.0426C21.5416 98.6623 20.2798 99.105 17.1692 98.1754C13.5242 99.0253 11.1321 100.114 9.77395 100.832C9.18688 101.141 8.53848 101.522 7.94265 102.23C6.60204 103.815 6.60204 105.816 6.60204 106.684C6.60204 109.845 9.10802 115.449 14.3566 119.106C23.5919 125.534 34.5096 121.204 36.8141 120.186C41.2477 118.238 42.2729 116.042 42.5621 115.325C43.412 113.209 43.3857 110.181 41.8961 108.03C40.2138 105.604 37.2872 105.17 37.3486 103.435C37.3661 102.788 37.7954 102.328 38.0145 102.08C39.3463 100.592 41.2828 97.8035 44.297 92.4912C52.4458 80.7068 56.0295 78.3074 57.6593 79.0334C59.955 80.0605 59.4468 87.843 59.3942 88.5779C59.3329 89.4278 58.9561 91.4022 58.1938 95.3333C57.3789 99.5389 56.9671 101.655 56.7218 102.089C54.4786 106.1 50.5619 105.241 48.9146 108.888C47.7493 111.474 49.4754 112.412 48.7043 115.6C47.7843 119.416 44.4635 121.594 39.2149 124.923C36.6476 126.552 32.9236 128.624 28.0782 130.368C27.3772 129.155 24.8449 125.082 20.2798 124.064C14.3566 122.736 7.1891 127.048 4.19244 135.051C4.1311 135.423 4.05224 135.99 4.01719 136.672C3.74556 142.064 6.73347 146.402 10.0806 150.537C15.0488 156.681 20.1046 162.932 29.6816 169.086C35.2894 172.68 39.6705 174.469 41.09 175.026C47.9508 177.727 57.0898 181.321 63.3635 177.01C64.2309 176.416 66.8771 174.407 67.6394 171.069C69.0326 164.96 63.013 159.231 60.323 156.672C53.7163 150.386 45.7953 148.589 41.2653 148.013C48.3889 144.109 53.9179 140.08 57.8871 136.849C64.3887 131.554 67.6219 128.907 69.9527 125.118C72.3885 121.16 74.5265 115.732 76.1388 116.104C76.498 116.184 76.7346 116.538 76.866 116.813C82.0883 122.329 87.4332 128.084 93.3127 134.503C95.8362 137.265 93.4616 134.688 104.537 149.43L104.542 149.436C104.983 150.025 106.143 151.572 106.806 153.884C107.332 155.725 107.209 156.876 107.271 158.682L107.271 158.685C107.376 161.943 107.517 166.306 109.873 169.484C110.294 170.051 111.862 172.158 114.482 172.928C115.42 173.211 118.942 174.035 128.651 166.854C133.969 162.923 137.492 159.293 138.21 158.549L138.234 158.524C144.899 151.586 153.457 142.677 154.192 130.403C154.297 128.721 154.227 127.34 154.157 126.454C152.116 121.364 149.321 119.761 148.05 119.203C141.242 116.202 129.991 121.921 122.254 135.051C122.193 135.53 121.904 137.46 121.098 137.584C120.677 137.655 120.283 137.194 120.072 136.946C118.392 134.948 115.726 131.116 115.05 130.144L114.99 130.058C113.869 128.305 112.256 125.861 110.18 123.037C106.999 118.699 104.178 114.856 99.7528 110.748C97.1329 108.313 95.9588 107.649 92.8044 104.94C90.9556 103.355 90.5613 102.894 89.58 102.558C89.2908 102.452 88.879 102.337 88.5635 101.956C87.8889 101.124 88.2919 99.7691 88.3971 99.3529C89.282 95.9973 90.9732 88.8733 90.5614 85.5C89.9918 80.9226 90.1956 79.9894 91.5 79.5C92.7698 79.0236 93.2192 79.021 94.8627 79.0114L95 79.0106C96.7569 79 104.86 79.6547 105.5 80L122.721 81.5109L129.932 81.5055L137.399 81.5109L141.879 81.0054L149.843 80.0054L152.331 78.5053L154.323 76.5051C154.79 75.8192 156.811 72.5049 157.807 70.5047C158.802 68.5046 158.502 61.5042 159 61.5C159.498 61.4958 160.5 62 163 62.0083C165.5 62.0166 166.913 61.0041 168 60.5081C169.087 60.0121 168.996 60.0042 169.493 58.508C169.991 57.0118 169.961 55.5115 169.991 55.0078C169.991 55.0078 169.536 50.912 168.51 49.4084C167.484 47.9048 163.745 44.4046 162.13 42.9044C160.515 41.4042 156.014 40.5 155 40.5H146C144.276 40.5 142.297 40.4 138.595 41.4002C134.892 42.4003 133.866 47.4006 133.399 47.9007C132.931 48.4008 132.48 53.0035 132.48 54.0036C132.48 54.8037 132.407 57.9958 133.399 59.5C134.39 61.0042 136.776 61.5083 138.5 61.5C140.224 61.4917 143.252 61.5 144 61.5C144.748 61.5 145.344 63.9689 145.5 64.6991C145.126 69.2521 134.525 67.4603 132.5 67.5C115.5 67.1162 111.463 67.367 113.5 66.5C117.829 65.9068 123.761 65.8324 125.663 64.6991C127.073 63.858 130.828 61.1124 131.923 56.0038C133.08 50.6206 130.824 44.4593 125.417 40.9001C120.37 38.6069 115.314 36.3138 110.267 34.0207C104.519 31.8161 100.506 28.8235 97.8164 26.3002C93.9348 22.6524 91.4463 18.7036 89.9743 16.3485C85.6107 9.33626 86.0313 6.81293 82.2197 3.65212C81.2208 2.81986 77.6634 -0.12846 73.2648 0.00434683C68.0513 0.172569 64.45 4.51979 60.5596 9.32741C53.5148 18.0573 54.6101 22.3425 47.3725 29.1776C45.4098 31.0281 43.0615 33.215 39.3551 34.8529C35.3771 36.6148 33.0288 36.3404 28.1307 37.9606Z"/>
</mask>
<path d="M28.1307 37.9606C24.3104 39.2267 21.3751 40.8381 19.4649 42.0245L19.4562 41.998C18.7201 42.7594 16.626 45.1145 16.0915 48.8774C15.5307 52.8262 17.0553 55.8099 17.5635 56.713C22.6894 63.6101 27.6576 66.1246 31.3289 67.1162C35.8064 68.3292 43.0265 68.5417 43.0089 69.1969C43.0089 69.25 42.9213 69.3208 42.9213 69.3208L33.7429 80.7555L24.5645 92.1902C24.5645 92.1902 23.7321 93.4917 23.3115 94.5276C22.5317 96.4666 22.742 97.3608 22.1111 98.0426C21.5416 98.6623 20.2798 99.105 17.1692 98.1754C13.5242 99.0253 11.1321 100.114 9.77395 100.832C9.18688 101.141 8.53848 101.522 7.94265 102.23C6.60204 103.815 6.60204 105.816 6.60204 106.684C6.60204 109.845 9.10802 115.449 14.3566 119.106C23.5919 125.534 34.5096 121.204 36.8141 120.186C41.2477 118.238 42.2729 116.042 42.5621 115.325C43.412 113.209 43.3857 110.181 41.8961 108.03C40.2138 105.604 37.2872 105.17 37.3486 103.435C37.3661 102.788 37.7954 102.328 38.0145 102.08C39.3463 100.592 41.2828 97.8035 44.297 92.4912C52.4458 80.7068 56.0295 78.3074 57.6593 79.0334C59.955 80.0605 59.4468 87.843 59.3942 88.5779C59.3329 89.4278 58.9561 91.4022 58.1938 95.3333C57.3789 99.5389 56.9671 101.655 56.7218 102.089C54.4786 106.1 50.5619 105.241 48.9146 108.888C47.7493 111.474 49.4754 112.412 48.7043 115.6C47.7843 119.416 44.4635 121.594 39.2149 124.923C36.6476 126.552 32.9236 128.624 28.0782 130.368C27.3772 129.155 24.8449 125.082 20.2798 124.064C14.3566 122.736 7.1891 127.048 4.19244 135.051C4.1311 135.423 4.05224 135.99 4.01719 136.672C3.74556 142.064 6.73347 146.402 10.0806 150.537C15.0488 156.681 20.1046 162.932 29.6816 169.086C35.2894 172.68 39.6705 174.469 41.09 175.026C47.9508 177.727 57.0898 181.321 63.3635 177.01C64.2309 176.416 66.8771 174.407 67.6394 171.069C69.0326 164.96 63.013 159.231 60.323 156.672C53.7163 150.386 45.7953 148.589 41.2653 148.013C48.3889 144.109 53.9179 140.08 57.8871 136.849C64.3887 131.554 67.6219 128.907 69.9527 125.118C72.3885 121.16 74.5265 115.732 76.1388 116.104C76.498 116.184 76.7346 116.538 76.866 116.813C82.0883 122.329 87.4332 128.084 93.3127 134.503C95.8362 137.265 93.4616 134.688 104.537 149.43L104.542 149.436C104.983 150.025 106.143 151.572 106.806 153.884C107.332 155.725 107.209 156.876 107.271 158.682L107.271 158.685C107.376 161.943 107.517 166.306 109.873 169.484C110.294 170.051 111.862 172.158 114.482 172.928C115.42 173.211 118.942 174.035 128.651 166.854C133.969 162.923 137.492 159.293 138.21 158.549L138.234 158.524C144.899 151.586 153.457 142.677 154.192 130.403C154.297 128.721 154.227 127.34 154.157 126.454C152.116 121.364 149.321 119.761 148.05 119.203C141.242 116.202 129.991 121.921 122.254 135.051C122.193 135.53 121.904 137.46 121.098 137.584C120.677 137.655 120.283 137.194 120.072 136.946C118.392 134.948 115.726 131.116 115.05 130.144L114.99 130.058C113.869 128.305 112.256 125.861 110.18 123.037C106.999 118.699 104.178 114.856 99.7528 110.748C97.1329 108.313 95.9588 107.649 92.8044 104.94C90.9556 103.355 90.5613 102.894 89.58 102.558C89.2908 102.452 88.879 102.337 88.5635 101.956C87.8889 101.124 88.2919 99.7691 88.3971 99.3529C89.282 95.9973 90.9732 88.8733 90.5614 85.5C89.9918 80.9226 90.1956 79.9894 91.5 79.5C92.7698 79.0236 93.2192 79.021 94.8627 79.0114L95 79.0106C96.7569 79 104.86 79.6547 105.5 80L122.721 81.5109L129.932 81.5055L137.399 81.5109L141.879 81.0054L149.843 80.0054L152.331 78.5053L154.323 76.5051C154.79 75.8192 156.811 72.5049 157.807 70.5047C158.802 68.5046 158.502 61.5042 159 61.5C159.498 61.4958 160.5 62 163 62.0083C165.5 62.0166 166.913 61.0041 168 60.5081C169.087 60.0121 168.996 60.0042 169.493 58.508C169.991 57.0118 169.961 55.5115 169.991 55.0078C169.991 55.0078 169.536 50.912 168.51 49.4084C167.484 47.9048 163.745 44.4046 162.13 42.9044C160.515 41.4042 156.014 40.5 155 40.5H146C144.276 40.5 142.297 40.4 138.595 41.4002C134.892 42.4003 133.866 47.4006 133.399 47.9007C132.931 48.4008 132.48 53.0035 132.48 54.0036C132.48 54.8037 132.407 57.9958 133.399 59.5C134.39 61.0042 136.776 61.5083 138.5 61.5C140.224 61.4917 143.252 61.5 144 61.5C144.748 61.5 145.344 63.9689 145.5 64.6991C145.126 69.2521 134.525 67.4603 132.5 67.5C115.5 67.1162 111.463 67.367 113.5 66.5C117.829 65.9068 123.761 65.8324 125.663 64.6991C127.073 63.858 130.828 61.1124 131.923 56.0038C133.08 50.6206 130.824 44.4593 125.417 40.9001C120.37 38.6069 115.314 36.3138 110.267 34.0207C104.519 31.8161 100.506 28.8235 97.8164 26.3002C93.9348 22.6524 91.4463 18.7036 89.9743 16.3485C85.6107 9.33626 86.0313 6.81293 82.2197 3.65212C81.2208 2.81986 77.6634 -0.12846 73.2648 0.00434683C68.0513 0.172569 64.45 4.51979 60.5596 9.32741C53.5148 18.0573 54.6101 22.3425 47.3725 29.1776C45.4098 31.0281 43.0615 33.215 39.3551 34.8529C35.3771 36.6148 33.0288 36.3404 28.1307 37.9606Z" fill="#758636" stroke="#F9F6EE" stroke-width="2" mask="url(#path-1-inside-1_384_1224)"/>
<path d="M60.8487 46.2841C60.5352 46.8684 60.2217 47.4528 59.8984 48.0371L59.4967 50.5248C59.6338 51.3482 59.9082 52.4283 60.496 53.6146C60.9173 54.4645 61.4072 55.1462 61.8383 55.6862C60.7312 55.8279 59.4281 55.9164 57.9486 55.8633C55.6854 55.7836 53.7749 55.3941 52.3444 54.9868C50.0126 54.8717 48.0139 53.7297 47.2889 52.0387C46.5639 50.3389 47.3966 48.6922 47.6906 48.1256C48.5234 46.4878 49.9832 45.6556 50.6298 45.3368C51.2079 45.0535 51.737 44.8942 52.1093 44.8056C52.2464 44.7614 52.4522 44.6994 52.6873 44.6374C53.2752 44.4781 55.1563 44 57.6939 44C58.7618 44 60.1825 44.0885 61.8285 44.4338C61.4954 45.0447 61.1623 45.6644 60.8291 46.2753L60.8487 46.2841Z" fill="white"/>
<path d="M72.3106 45.7442C75.7398 46.1337 78.1892 47.3378 78.9338 48.3559C79.5315 49.1704 79.7078 50.0114 79.7176 50.0114C79.747 50.1265 79.8352 50.578 79.7862 51.2332C79.7274 51.9857 79.6392 53.1809 78.7378 53.9777C78.2284 54.438 77.5817 54.5797 76.2982 54.8807C75.2891 55.1109 74.4171 55.1994 73.8097 55.2437H70.9194L72.2127 53.3491C72.5458 52.7559 73.0259 51.6935 73.0063 50.3302C72.9769 47.7185 71.1545 46.0009 70.7136 45.6025C71.2427 45.6468 71.7718 45.6911 72.3106 45.7353V45.7442Z" fill="white"/>
<path d="M98.9496 46.2841C98.636 46.8684 98.3225 47.4528 97.9992 48.0371L97.5975 50.5248C97.7347 51.3482 98.009 52.4283 98.5968 53.6146C99.0181 54.4645 99.508 55.1462 99.9391 55.6862C98.832 55.8279 97.5289 55.9164 96.0495 55.8633C93.7862 55.7836 91.8757 55.3941 90.4453 54.9868C88.1134 54.8717 86.1147 53.7297 85.3897 52.0387C84.6647 50.3389 85.4975 48.6922 85.7914 48.1256C86.6242 46.4878 88.084 45.6556 88.7307 45.3368C89.3087 45.0535 89.8378 44.8942 90.2101 44.8056C90.3473 44.7614 90.553 44.6994 90.7882 44.6374C91.376 44.4781 93.2572 44 95.7947 44C96.8627 44 98.2833 44.0885 99.9293 44.4338C99.5962 45.0447 99.2631 45.6644 98.93 46.2753L98.9496 46.2841Z" fill="white"/>
<path d="M110.411 45.7442C113.841 46.1337 116.29 47.3378 117.035 48.3559C117.632 49.1704 117.809 50.0114 117.818 50.0114C117.848 50.1265 117.936 50.578 117.887 51.2332C117.828 51.9857 117.74 53.1809 116.839 53.9777C116.329 54.438 115.683 54.5797 114.399 54.8807C113.39 55.1109 112.518 55.1994 111.91 55.2437H109.02L110.313 53.3491C110.647 52.7559 111.127 51.6935 111.107 50.3302C111.078 47.7185 109.255 46.0009 108.814 45.6025C109.344 45.6468 109.873 45.6911 110.411 45.7353V45.7442Z" fill="white"/>
</g>
<defs>
<filter id="filter0_d_384_1224" x="-1" y="0" width="176" height="187" filterUnits="userSpaceOnUse" color-interpolation-filters="sRGB">
<feFlood flood-opacity="0" result="BackgroundImageFix"/>
<feColorMatrix in="SourceAlpha" type="matrix" values="0 0 0 0 0 0 0 0 0 0 0 0 0 0 0 0 0 0 127 0" result="hardAlpha"/>
<feOffset dy="4"/>
<feGaussianBlur stdDeviation="2"/>
<feComposite in2="hardAlpha" operator="out"/>
<feColorMatrix type="matrix" values="0 0 0 0 0 0 0 0 0 0 0 0 0 0 0 0 0 0 0.25 0"/>
<feBlend mode="normal" in2="BackgroundImageFix" result="effect1_dropShadow_384_1224"/>
<feBlend mode="normal" in="SourceGraphic" in2="effect1_dropShadow_384_1224" result="shape"/>
</filter>
<clipPath id="clip0_384_1224">
<rect width="168" height="179" fill="white" transform="translate(3)"/>
</clipPath>
</defs>
</svg>
