<svg width="174" height="182" viewBox="0 0 174 182" fill="none" xmlns="http://www.w3.org/2000/svg">
<g filter="url(#filter0_d_384_1577)">
<path d="M28.132 36.8978C24.3115 38.1284 21.376 39.6947 19.4658 40.8479L19.457 40.8221C18.7209 41.5622 16.6267 43.8514 16.0921 47.5089C15.5313 51.3471 17.056 54.2473 17.5643 55.1251C22.6904 61.8292 27.6589 64.2732 31.3304 65.2371C35.8081 66.4161 43.0286 66.6227 43.011 67.2595C43.011 67.3111 42.9234 67.38 42.9234 67.38L33.7445 78.4945L24.5656 89.6091C24.5656 89.6091 23.7332 90.8741 23.3126 91.881C22.5327 93.7657 22.743 94.6349 22.1121 95.2976C21.5425 95.9 20.2807 96.3303 17.1699 95.4267C13.5247 96.2528 11.1325 97.3113 9.77426 98.0084C9.18716 98.3096 8.53873 98.6797 7.94287 99.3682C6.60218 100.909 6.60218 102.854 6.60218 103.697C6.60218 106.769 9.1083 112.217 14.3571 115.771C23.593 122.019 34.5113 117.811 36.8158 116.821C41.2497 114.928 42.275 112.793 42.5641 112.096C43.4141 110.04 43.3878 107.096 41.8982 105.005C40.2157 102.647 37.289 102.225 37.3504 100.539C37.3679 99.9103 37.7973 99.4628 38.0163 99.2219C39.3482 97.7761 41.2848 95.0652 44.2991 89.9016C52.4484 78.4472 56.0323 76.115 57.6622 76.8207C59.958 77.8189 59.4498 85.3835 59.3972 86.0978C59.3359 86.924 58.9591 88.8431 58.1967 92.6641C57.3818 96.752 56.97 98.8088 56.7246 99.2305C54.4814 103.129 50.5644 102.294 48.9171 105.84C47.7516 108.353 49.4779 109.265 48.7068 112.363C47.7867 116.072 44.4656 118.189 39.2168 121.425C36.6493 123.009 32.9252 125.022 28.0795 126.718C27.3784 125.539 24.846 121.58 20.2807 120.59C14.3571 119.299 7.18928 123.491 4.19245 131.27C4.13111 131.632 4.05224 132.183 4.01719 132.845C3.74555 138.086 6.73362 142.303 10.081 146.322C15.0494 152.295 20.1054 158.37 29.683 164.351C35.2911 167.845 39.6725 169.584 41.092 170.126C47.9532 172.751 57.0926 176.245 63.3667 172.054C64.2342 171.477 66.8805 169.524 67.6429 166.279C69.0361 160.341 63.0162 154.773 60.326 152.286C53.719 146.176 45.7976 144.429 41.2673 143.869C48.3913 140.074 53.9205 136.158 57.89 133.017C64.3919 127.871 67.6253 125.298 69.9562 121.614C72.3922 117.768 74.5303 112.492 76.1427 112.854C76.5019 112.931 76.7385 113.275 76.87 113.542C82.0925 118.904 87.4377 124.497 93.3175 130.737C95.8411 133.422 93.4664 130.917 104.542 145.246L104.547 145.252C104.989 145.825 106.148 147.328 106.812 149.575C107.338 151.365 107.215 152.484 107.276 154.24L107.276 154.242C107.382 157.409 107.522 161.65 109.879 164.739C110.299 165.29 111.868 167.338 114.488 168.086C115.426 168.362 118.948 169.162 128.657 162.183C133.976 158.362 137.499 154.833 138.217 154.11L138.242 154.086C144.907 147.342 153.465 138.683 154.2 126.752C154.306 125.117 154.236 123.775 154.165 122.914C152.124 117.966 149.328 116.408 148.058 115.866C141.249 112.948 129.998 118.508 122.261 131.27C122.199 131.735 121.91 133.611 121.104 133.732C120.683 133.8 120.289 133.353 120.079 133.112C118.398 131.17 115.732 127.444 115.056 126.5L114.996 126.417C113.875 124.713 112.262 122.337 110.186 119.592C107.005 115.375 104.183 111.64 99.758 107.647C97.138 105.28 95.9638 104.635 92.8092 102.002C90.9603 100.461 90.566 100.014 89.5846 99.6866C89.2954 99.5833 88.8836 99.4714 88.5681 99.1014C87.8934 98.2924 88.2965 96.9757 88.4016 96.5712C89.2867 93.3096 90.9779 86.385 90.566 83.1062C89.9965 78.6569 90.2002 77.7499 91.5047 77.2742C92.7746 76.8111 93.224 76.8085 94.8676 76.7992L95.0049 76.7985C96.7619 76.7882 104.866 77.4245 105.505 77.7602L122.727 79.2288L129.939 79.2235L137.406 79.2288L141.886 78.7374L149.851 77.7654L152.339 76.3073L154.331 74.3631C154.798 73.6964 156.82 70.4749 157.815 68.5307C158.811 66.5866 158.511 59.7822 159.008 59.7781C159.506 59.774 160.508 60.2641 163.009 60.2722C165.509 60.2803 166.922 59.2961 168.009 58.814C169.095 58.3319 169.004 58.3242 169.502 56.8699C170 55.4156 169.97 53.9573 170 53.4676C170 53.4676 169.545 49.4865 168.519 48.025C167.493 46.5635 163.753 43.1614 162.139 41.7032C160.524 40.245 156.022 39.3661 155.008 39.3661H146.008C144.284 39.3661 142.305 39.2689 138.602 40.241C134.899 41.2132 133.873 46.0735 133.406 46.5596C132.938 47.0456 132.487 51.5195 132.487 52.4916C132.487 53.2693 132.414 56.3721 133.406 57.8341C134.397 59.2962 136.783 59.7862 138.507 59.7781C140.232 59.77 143.26 59.7781 144.008 59.7781C144.755 59.7781 145.352 62.1779 145.508 62.8877C145.134 67.3132 134.532 65.5715 132.507 65.6101C115.506 65.2371 111.468 65.4808 113.506 64.6381C117.835 64.0615 123.768 63.9892 125.669 62.8877C127.08 62.0701 130.835 59.4014 131.93 54.4358C133.087 49.2034 130.83 43.2145 125.424 39.755C120.377 37.526 115.321 35.2971 110.273 33.0682C104.525 30.9253 100.512 28.0165 97.8215 25.5638C93.9396 22.0182 91.451 18.1799 89.9789 15.8907C85.6151 9.07486 86.0357 6.62218 82.2239 3.54986C81.225 2.74091 77.6674 -0.124864 73.2685 0.00422513C68.0547 0.167738 64.4533 4.39324 60.5626 9.06626C53.5175 17.5517 54.6128 21.717 47.3748 28.3607C45.412 30.1594 43.0636 32.285 39.357 33.8771C35.3788 35.5897 33.0304 35.3229 28.132 36.8978Z" fill="#758636"/>
<path d="M60.8487 46.2841C60.5352 46.8684 60.2217 47.4528 59.8984 48.0371L59.4967 50.5248C59.6338 51.3482 59.9082 52.4283 60.496 53.6146C60.9173 54.4645 61.4072 55.1462 61.8383 55.6862C60.7312 55.8279 59.4281 55.9164 57.9486 55.8633C55.6854 55.7836 53.7749 55.3941 52.3444 54.9868C50.0126 54.8717 48.0139 53.7297 47.2889 52.0387C46.5639 50.3389 47.3966 48.6922 47.6906 48.1256C48.5234 46.4878 49.9832 45.6556 50.6298 45.3368C51.2079 45.0535 51.737 44.8942 52.1093 44.8056C52.2464 44.7614 52.4522 44.6994 52.6873 44.6374C53.2752 44.4781 55.1563 44 57.6939 44C58.7618 44 60.1825 44.0885 61.8285 44.4338C61.4954 45.0447 61.1623 45.6644 60.8291 46.2753L60.8487 46.2841Z" fill="white"/>
<path d="M72.3106 45.7442C75.7398 46.1337 78.1892 47.3378 78.9338 48.3559C79.5315 49.1704 79.7078 50.0114 79.7176 50.0114C79.747 50.1265 79.8352 50.578 79.7862 51.2332C79.7274 51.9857 79.6392 53.1809 78.7378 53.9777C78.2284 54.438 77.5817 54.5797 76.2982 54.8807C75.2891 55.1109 74.4171 55.1994 73.8097 55.2437H70.9194L72.2127 53.3491C72.5458 52.7559 73.0259 51.6935 73.0063 50.3302C72.9769 47.7185 71.1545 46.0009 70.7136 45.6025C71.2427 45.6468 71.7718 45.6911 72.3106 45.7353V45.7442Z" fill="white"/>
<path d="M98.9496 46.2841C98.636 46.8684 98.3225 47.4528 97.9992 48.0371L97.5975 50.5248C97.7347 51.3482 98.009 52.4283 98.5968 53.6146C99.0181 54.4645 99.508 55.1462 99.9391 55.6862C98.832 55.8279 97.5289 55.9164 96.0495 55.8633C93.7862 55.7836 91.8757 55.3941 90.4453 54.9868C88.1134 54.8717 86.1147 53.7297 85.3897 52.0387C84.6647 50.3389 85.4975 48.6922 85.7914 48.1256C86.6242 46.4878 88.084 45.6556 88.7307 45.3368C89.3087 45.0535 89.8378 44.8942 90.2101 44.8056C90.3473 44.7614 90.553 44.6994 90.7882 44.6374C91.376 44.4781 93.2572 44 95.7947 44C96.8627 44 98.2833 44.0885 99.9293 44.4338C99.5962 45.0447 99.2631 45.6644 98.93 46.2753L98.9496 46.2841Z" fill="white"/>
<path d="M110.411 45.7442C113.841 46.1337 116.29 47.3378 117.035 48.3559C117.632 49.1704 117.809 50.0114 117.818 50.0114C117.848 50.1265 117.936 50.578 117.887 51.2332C117.828 51.9857 117.74 53.1809 116.839 53.9777C116.329 54.438 115.683 54.5797 114.399 54.8807C113.39 55.1109 112.518 55.1994 111.91 55.2437H109.02L110.313 53.3491C110.647 52.7559 111.127 51.6935 111.107 50.3302C111.078 47.7185 109.255 46.0009 108.814 45.6025C109.344 45.6468 109.873 45.6911 110.411 45.7353V45.7442Z" fill="white"/>
</g>
<defs>
<filter id="filter0_d_384_1577" x="-1" y="0" width="176" height="187" filterUnits="userSpaceOnUse" color-interpolation-filters="sRGB">
<feFlood flood-opacity="0" result="BackgroundImageFix"/>
<feColorMatrix in="SourceAlpha" type="matrix" values="0 0 0 0 0 0 0 0 0 0 0 0 0 0 0 0 0 0 127 0" result="hardAlpha"/>
<feOffset dy="4"/>
<feGaussianBlur stdDeviation="2"/>
<feComposite in2="hardAlpha" operator="out"/>
<feColorMatrix type="matrix" values="0 0 0 0 0 0 0 0 0 0 0 0 0 0 0 0 0 0 0.25 0"/>
<feBlend mode="normal" in2="BackgroundImageFix" result="effect1_dropShadow_384_1577"/>
<feBlend mode="normal" in="SourceGraphic" in2="effect1_dropShadow_384_1577" result="shape"/>
</filter>
</defs>
</svg>
