<svg width="68" height="65" viewBox="0 0 68 65" fill="none" xmlns="http://www.w3.org/2000/svg">
<path fill-rule="evenodd" clip-rule="evenodd" d="M39.6923 5.39636C41.1612 5.39636 42.5699 5.9649 43.6086 6.97691C44.6472 7.98892 45.2308 9.36151 45.2308 10.7927C45.2322 12.6574 45.8935 14.4647 47.1032 15.9097C48.3128 17.3547 49.9969 18.3492 51.8714 18.7253C53.3109 19.0101 54.5753 19.8404 55.3865 21.0336C56.1977 22.2268 56.4892 23.685 56.1969 25.0876C55.9046 26.4902 55.0524 27.7222 53.8278 28.5126C52.6033 29.3029 51.1066 29.587 49.6671 29.3022C48.1337 28.9982 46.6439 28.5134 45.2308 27.8586V43.1708C45.2306 46.1987 44.3589 49.166 42.7147 51.7354C41.0704 54.3049 38.7195 56.3735 35.929 57.7064C33.1386 59.0392 30.0204 59.5828 26.9287 59.2754C23.8371 58.9681 20.8958 57.822 18.4392 55.9675C15.9825 54.113 14.1089 51.6244 13.0311 48.7843C11.9534 45.9442 11.7147 42.8666 12.3423 39.901C12.9698 36.9354 14.4384 34.2007 16.5812 32.0076C18.724 29.8145 21.4551 28.2509 24.4643 27.4944C25.8778 27.1622 27.3686 27.385 28.6149 28.1145C29.8613 28.8441 30.7632 30.0219 31.126 31.3938C31.4888 32.7656 31.2834 34.2215 30.5541 35.447C29.8248 36.6726 28.6302 37.5696 27.228 37.9444C25.9297 38.28 24.8006 39.0635 24.0506 40.1493C23.3006 41.235 22.9806 42.5491 23.1502 43.8474C23.3198 45.1456 23.9673 46.3398 24.9725 47.2079C25.9777 48.076 27.2722 48.559 28.6154 48.5671C30.0843 48.5671 31.493 47.9986 32.5317 46.9865C33.5703 45.9745 34.1538 44.602 34.1538 43.1708V10.7927C34.1538 9.36151 34.7374 7.98892 35.776 6.97691C36.8147 5.9649 38.2234 5.39636 39.6923 5.39636Z" fill="#D95829"/>
</svg>
