<svg width="106" height="134" viewBox="0 0 106 134" fill="none" xmlns="http://www.w3.org/2000/svg">
<g clip-path="url(#clip0_222_1106)">
<g clip-path="url(#clip1_222_1106)">
<g filter="url(#filter0_dd_222_1106)">
<path d="M10.9042 31.4525C12.2518 30.5645 14.3226 29.3584 17.0177 28.4107C20.4731 27.1979 22.1298 27.4034 24.9362 26.0846C27.5509 24.8586 29.2076 23.2217 30.5922 21.8366C35.6981 16.7205 34.9254 13.513 39.8954 6.97866C42.6399 3.38015 45.1805 0.126239 48.8585 0.000323929C51.9616 -0.0990826 54.4713 2.10774 55.176 2.73069C57.8649 5.09656 57.5682 6.98529 60.6466 12.234C61.6851 13.9968 63.4406 16.9524 66.179 19.6828C68.0767 21.5715 70.9078 23.8115 74.9629 25.4616C78.5234 27.1781 82.0901 28.8945 85.6507 30.6109C89.4646 33.275 91.4489 37.7682 90.6329 41.7975C89.8603 45.6213 86.819 47.795 85.8237 48.4246C84.4824 49.2728 83.209 49.6307 80.1553 50.0747C77.5158 50.4591 73.8317 50.8633 69.3192 50.9495C72.107 53.6666 74.1717 56.2247 75.6367 58.226C77.5282 60.8172 78.474 62.1095 79.5001 64.1904C80.9466 67.113 80.8909 68.2065 82.1396 69.0415C84.0497 70.3205 85.4405 68.6107 88.4571 69.3463C88.7476 69.4192 92.9139 70.5061 94.4902 74.701C94.5705 74.9131 95.9305 78.7038 94.0204 82.183C92.3823 85.1586 89.4399 85.9273 86.7572 86.6298C81.2618 88.0745 73.3433 87.5841 71.3158 83.356C70.9882 82.6734 70.506 81.2552 70.4442 79.5189C70.3948 78.1338 70.3453 76.762 71.0995 75.4764C71.8351 74.2239 72.923 73.7666 72.8303 72.8123C72.787 72.3815 72.5212 72.0634 72.3296 71.8712C72.107 71.5465 71.7609 71.0429 71.3529 70.4199C70.8151 69.5981 70.438 68.9752 70.3144 68.783C69.8446 68.0143 69.0472 66.7883 67.644 64.7935C64.8067 61.301 62.3341 59.1008 61.3884 58.5574C60.9371 58.2989 59.9852 57.9278 59.2187 57.6826C58.8045 57.5501 58.7303 57.5434 58.65 57.5832C57.9885 57.9013 58.8478 60.5919 59.2496 64.0181C59.5401 66.543 60.1582 71.8514 59.5339 74.363C59.4597 74.6745 59.1754 75.6885 59.6514 76.3114C59.8739 76.5964 60.1644 76.6825 60.3684 76.762C61.0607 77.0139 61.3389 77.3585 62.6432 78.5447C64.8685 80.5726 65.6968 81.0697 67.5451 82.8921C70.6668 85.9671 72.6572 88.8433 74.9011 92.0905C76.3661 94.2046 77.5035 96.0337 78.2947 97.3458C78.6903 97.9489 80.656 100.958 81.88 102.502C82.0283 102.687 82.3065 103.032 82.6032 102.979C83.1719 102.886 83.3759 101.441 83.4192 101.084C88.8774 91.2555 96.8144 86.9744 101.617 89.221C102.514 89.6385 104.486 90.838 105.926 94.6486C105.975 95.3113 106.025 96.3451 105.951 97.6043C105.431 106.803 99.3797 113.476 94.6756 118.672C94.1687 119.229 91.6838 121.946 87.9316 124.888C81.0826 130.263 78.5976 129.646 77.9362 129.434C76.0879 128.858 74.9814 127.28 74.6847 126.856C73.0219 124.477 72.923 121.21 72.8488 118.771C72.8055 117.419 72.8921 116.558 72.5212 115.179C72.0514 113.443 71.2293 112.283 70.9202 111.846C63.1068 100.812 64.782 102.74 63.0017 100.673C58.8539 95.868 55.0832 91.5604 51.3991 87.4317C51.3064 87.2262 51.1395 86.9612 50.886 86.9015C49.7486 86.6232 48.2404 90.6856 46.5219 93.6479C44.8776 96.4843 42.5967 98.4658 38.01 102.429C35.2098 104.848 31.3093 107.863 26.2837 110.786C29.4796 111.216 35.0676 112.562 39.7285 117.267C41.6262 119.182 45.8728 123.47 44.89 128.043C44.3522 130.541 42.4854 132.045 41.8734 132.489C37.4475 135.717 31.0002 133.026 26.1601 131.005C25.1587 130.587 22.068 129.249 18.1118 126.558C11.3555 121.952 7.78875 117.274 4.28385 112.674C1.92253 109.579 -0.185356 106.332 0.00626952 102.296C0.0309954 101.786 0.0866287 101.362 0.129899 101.084C2.24396 95.0926 7.30041 91.8652 11.4791 92.8593C14.6996 93.6214 16.4861 96.6699 16.9806 97.5778C20.399 96.2722 23.0261 94.7215 24.8373 93.5021C28.54 91.0103 30.8828 89.38 31.5318 86.5238C32.0758 84.138 30.858 83.4355 31.6802 81.5004C32.8423 78.7701 35.6054 79.4129 37.1879 76.4108C37.3609 76.0861 37.6515 74.5022 38.2264 71.3543C38.7641 68.4119 39.0299 66.9341 39.0732 66.2978C39.1103 65.7478 39.4688 59.9226 37.8493 59.1538C36.6995 58.6104 34.1713 60.4064 28.4225 69.227C26.2961 73.2033 24.93 75.2908 23.9904 76.4042C23.8359 76.5897 23.533 76.9343 23.5206 77.4181C23.4773 78.717 25.542 79.0418 26.7288 80.8576C27.7797 82.468 27.7982 84.7344 27.1986 86.3183C26.9946 86.8551 26.2714 88.4986 23.1435 89.9566C21.5178 90.7187 13.8157 93.9594 7.30042 89.1481C3.59771 86.4111 1.82981 82.2161 1.82981 79.8503C1.82981 79.2008 1.82981 77.7031 2.77557 76.5168C3.19591 75.9867 3.65334 75.7017 4.0675 75.4698C5.02563 74.933 6.71317 74.1178 9.28467 73.4816C11.4791 74.1775 12.3692 73.8461 12.771 73.3822C13.2161 72.8719 13.0677 72.2026 13.6179 70.7513C13.9146 69.9759 14.2546 69.3795 14.5018 69.0017L27.452 51.8839C27.452 51.8839 27.5139 51.8309 27.5139 51.7911C27.5262 51.3007 22.4327 51.1417 19.2739 50.2338C16.6839 49.4915 13.179 47.6094 9.56284 42.4469C9.20431 41.7709 8.12873 39.5376 8.52435 36.5819C8.90142 33.7654 10.3788 32.0026 10.898 31.4327L10.9042 31.4525Z" fill="#D95829"/>
</g>
<path d="M40.3898 34.8519C40.192 35.2893 39.9942 35.7267 39.7902 36.164L39.5367 38.0263C39.6233 38.6426 39.7963 39.4511 40.1672 40.3391C40.433 40.9753 40.7421 41.4856 41.0141 41.8899C40.3156 41.9959 39.4935 42.0622 38.56 42.0224C37.1321 41.9628 35.9267 41.6712 35.0242 41.3663C33.553 41.2802 32.292 40.4253 31.8346 39.1595C31.3772 37.8871 31.9026 36.6545 32.088 36.2303C32.6135 35.0043 33.5345 34.3814 33.9425 34.1428C34.3072 33.9307 34.641 33.8114 34.8759 33.7452C34.9624 33.712 35.0922 33.6656 35.2406 33.6192C35.6115 33.5 36.7983 33.1421 38.3993 33.1421C39.0731 33.1421 39.9694 33.2084 41.0079 33.4668C40.7977 33.9241 40.5876 34.388 40.3774 34.8453L40.3898 34.8519Z" fill="white"/>
<path d="M47.6223 34.4478C49.7858 34.7394 51.3312 35.6407 51.801 36.4028C52.1781 37.0125 52.2893 37.6421 52.2955 37.6421C52.3141 37.7282 52.3697 38.0662 52.3388 38.5566C52.3017 39.1199 52.2461 40.0146 51.6774 40.611C51.3559 40.9556 50.948 41.0617 50.1382 41.287C49.5015 41.4593 48.9513 41.5256 48.5681 41.5587H46.7446L47.5605 40.1405C47.7707 39.6965 48.0736 38.9012 48.0612 37.8807C48.0427 35.9257 46.8929 34.64 46.6147 34.3418C46.9485 34.3749 47.2823 34.4081 47.6223 34.4412V34.4478Z" fill="white"/>
<path d="M64.4293 34.8519C64.2315 35.2893 64.0337 35.7267 63.8297 36.164L63.5763 38.0263C63.6628 38.6426 63.8359 39.4511 64.2068 40.3391C64.4726 40.9753 64.7817 41.4856 65.0536 41.8899C64.3551 41.9959 63.533 42.0622 62.5996 42.0224C61.1717 41.9628 59.9663 41.6712 59.0638 41.3663C57.5926 41.2802 56.3316 40.4253 55.8741 39.1595C55.4167 37.8871 55.9421 36.6545 56.1276 36.2303C56.653 35.0043 57.5741 34.3814 57.982 34.1428C58.3467 33.9307 58.6805 33.8114 58.9154 33.7452C59.002 33.712 59.1318 33.6656 59.2801 33.6192C59.651 33.5 60.8379 33.1421 62.4389 33.1421C63.1127 33.1421 64.009 33.2084 65.0475 33.4668C64.8373 33.9241 64.6271 34.388 64.417 34.8453L64.4293 34.8519Z" fill="white"/>
<path d="M71.6619 34.4478C73.8254 34.7394 75.3708 35.6407 75.8406 36.4028C76.2176 37.0125 76.3289 37.6421 76.3351 37.6421C76.3536 37.7282 76.4093 38.0662 76.3783 38.5566C76.3413 39.1199 76.2856 40.0146 75.7169 40.611C75.3955 40.9556 74.9875 41.0617 74.1777 41.287C73.541 41.4593 72.9909 41.5256 72.6076 41.5587H70.7841L71.6001 40.1405C71.8102 39.6965 72.1131 38.9012 72.1008 37.8807C72.0822 35.9257 70.9325 34.64 70.6543 34.3418C70.9881 34.3749 71.3219 34.4081 71.6619 34.4412V34.4478Z" fill="white"/>
</g>
</g>
<defs>
<filter id="filter0_dd_222_1106" x="-4.00586" y="-0.00292969" width="113.994" height="141.991" filterUnits="userSpaceOnUse" color-interpolation-filters="sRGB">
<feFlood flood-opacity="0" result="BackgroundImageFix"/>
<feColorMatrix in="SourceAlpha" type="matrix" values="0 0 0 0 0 0 0 0 0 0 0 0 0 0 0 0 0 0 127 0" result="hardAlpha"/>
<feOffset dy="4"/>
<feGaussianBlur stdDeviation="2"/>
<feComposite in2="hardAlpha" operator="out"/>
<feColorMatrix type="matrix" values="0 0 0 0 0 0 0 0 0 0 0 0 0 0 0 0 0 0 0.25 0"/>
<feBlend mode="normal" in2="BackgroundImageFix" result="effect1_dropShadow_222_1106"/>
<feColorMatrix in="SourceAlpha" type="matrix" values="0 0 0 0 0 0 0 0 0 0 0 0 0 0 0 0 0 0 127 0" result="hardAlpha"/>
<feOffset dy="4"/>
<feGaussianBlur stdDeviation="2"/>
<feComposite in2="hardAlpha" operator="out"/>
<feColorMatrix type="matrix" values="0 0 0 0 0 0 0 0 0 0 0 0 0 0 0 0 0 0 0.25 0"/>
<feBlend mode="normal" in2="effect1_dropShadow_222_1106" result="effect2_dropShadow_222_1106"/>
<feBlend mode="normal" in="SourceGraphic" in2="effect2_dropShadow_222_1106" result="shape"/>
</filter>
<clipPath id="clip0_222_1106">
<rect width="106" height="134" fill="white"/>
</clipPath>
<clipPath id="clip1_222_1106">
<rect width="106" height="134" fill="white"/>
</clipPath>
</defs>
</svg>
